<svg width="945" height="745" viewBox="0 0 945 745" fill="none" xmlns="http://www.w3.org/2000/svg">
<g clip-path="url(#clip0_1_43)">
<path fill-rule="evenodd" clip-rule="evenodd" d="M553.274 565.064C552.237 562.54 552.63 559.347 552.726 556.463C552.809 553.962 552.341 552.572 549.418 552.763C545.466 553.022 541.126 550.085 539.489 546.433C539.083 545.528 538.482 544.711 537.874 543.69C536.683 544.368 535.593 544.79 534.748 545.502C530.171 549.359 524.179 549.492 519.083 549.379C514.845 549.286 511.02 551.133 507.475 550.027C508.348 552.285 508.817 554.465 509.952 556.212C511.862 559.15 509.196 560.266 508.144 562.101C507.453 563.306 506.482 564.77 506.652 565.974C507.22 570.005 507.965 574.059 509.174 577.938C510.358 581.739 507.146 583.183 505.616 585.438C505.311 585.888 502.837 584.975 501.412 584.53C499.136 583.821 496.936 582.831 494.628 582.274C493.874 582.092 492.884 582.889 492.001 583.238C492.407 584.112 492.643 585.138 493.258 585.825C494.239 586.92 495.472 587.788 496.708 588.847C495.408 590.454 494.029 591.59 493.409 593.048C492.286 595.685 490.458 596.086 487.814 596.625C481.571 597.898 475.69 600.917 469.051 600.346C468.649 600.312 468.157 600.822 467.772 601.155C465.785 602.876 463.975 602.271 461.813 601.229C459.904 600.309 457.424 599.43 455.519 599.885C451.873 600.756 448.441 602.553 444.961 604.06C444.488 604.264 444.175 604.97 443.913 605.504C443.055 607.254 442.254 609.032 441.516 610.616C441.516 612.425 442.279 614.962 441.358 615.995C439.427 618.159 436.777 619.3 433.423 617.825C429.861 616.26 425.981 615.417 421.965 614.173C422.558 618.593 419.661 619.732 416.436 620.656C409.777 622.564 403.899 625.995 398.451 630.183C397.869 630.63 397.552 631.655 397.448 632.455C396.712 638.07 396.183 638.487 390.651 637.476C386.341 636.688 380.433 641.451 380.675 645.711C380.809 648.073 380.255 649.423 377.667 649.553C376.999 649.586 376.376 650.507 375.707 650.542C374.239 650.619 372.511 650.842 371.324 650.2C368.146 648.483 365.188 646.355 362.16 644.365C358.753 642.127 353.924 641.226 354.411 635.608C351.839 635.495 349.039 634.491 347.688 635.476C343.34 638.646 339.106 638.085 334.661 636.42C332.351 635.556 328.641 634.866 328.195 633.333C327.306 630.271 325.905 626.869 327.669 623.268C329.127 620.291 329.953 616.927 330.528 613.641C330.708 612.611 329.436 610.702 328.355 610.181C322.77 607.49 322.504 607.24 322.945 601.111C323.006 600.276 323.298 599.007 322.881 598.657C319.415 595.756 315.944 592.819 312.194 590.313C309.809 588.72 306.781 588.103 304.35 586.562C302.28 585.25 300.738 583.134 298.802 581.574C296.935 580.07 294.861 578.822 292.895 577.473C292.464 578.603 291.732 580.522 291 582.441C290.768 583.969 290.536 585.497 290.303 587.025C289.9 587.629 289.497 588.232 289.095 588.836C288.781 589.274 288.467 589.711 288.153 590.148C287.642 590.656 287.132 591.163 286.621 591.671C286.621 591.671 286.607 591.684 286.607 591.684C283.3 594.2 285.819 596.475 286.9 598.809C286.902 598.81 286.836 598.858 286.836 598.858C285.753 600.14 283.94 601.31 283.726 602.723C283.113 606.77 282.593 610.987 283.112 614.997C283.5 617.994 282.751 620.016 281.242 622.323C279.416 625.113 280.281 627.66 283.273 629.583C283.456 629.725 283.582 629.908 283.65 630.131C284.634 631.883 285.966 633.53 286.528 635.408C287.646 639.147 288.341 643.013 289.209 646.825C289.287 648.796 289.363 650.765 289.439 652.735C289.139 655.81 290.338 657.722 293.567 658.059C293.779 658.841 293.991 659.623 294.203 660.404C295.555 662.184 296.908 663.964 298.26 665.744C298.404 665.856 298.471 666.003 298.46 666.185C298.896 668.313 299.552 670.424 299.705 672.571C299.867 674.837 300.892 675.702 303.011 675.605C303.012 675.604 302.886 675.757 302.886 675.757L303.031 675.623C303.087 677.387 302.81 679.243 303.264 680.899C304.539 685.548 306.088 690.123 307.61 694.701C307.77 695.183 308.46 695.489 308.905 695.877C309.055 696.006 309.145 696.168 309.174 696.364C310.108 697.497 311.042 698.629 311.976 699.762C312.253 700.04 312.53 700.317 312.808 700.595C313.432 701.271 314.056 701.947 314.681 702.623C315.094 702.961 315.506 703.3 315.918 703.638C318.829 707.795 319.823 714.126 327.016 713.425C327.214 713.443 327.373 713.531 327.494 713.688C328.363 717.667 331.185 715.329 333.062 715.209C337.909 714.901 342.73 714.204 347.562 713.662C348.346 713.66 349.129 713.658 349.912 713.656C351.697 714.547 353.414 715.244 353.814 712.261C354.316 712.224 354.818 712.187 355.32 712.149C360.556 713.744 364.026 712.198 365.048 707.816C365.029 707.633 365.095 707.489 365.244 707.384C366.058 706.651 366.871 705.919 367.685 705.186C367.685 705.187 367.719 705.153 367.719 705.153C367.719 705.153 367.719 705.154 367.719 705.153C368.537 704.464 369.6 703.923 370.127 703.056C371.671 700.513 373.33 698.715 376.568 697.838C378.741 697.249 380.288 694.35 382.116 692.486C382.286 692.09 382.457 691.694 382.629 691.299C384.84 689.246 387.052 687.194 389.263 685.142C389.399 684.99 389.568 684.909 389.771 684.898C393.307 685.281 392.52 682.363 393.124 680.506C393.25 680.354 393.412 680.272 393.61 680.26C394.433 679.506 395.257 678.752 396.08 677.997C396.079 677.997 396.067 678.009 396.067 678.009C396.845 677.236 397.624 676.462 398.402 675.689C398.402 675.688 398.392 675.7 398.392 675.7C403.522 674.991 409.578 676.266 411.714 669.226C411.952 668.441 413.299 668.038 414.02 667.343C415.06 666.34 415.999 665.231 416.98 664.168C417.688 663.627 418.395 663.085 419.102 662.544C422.733 662.018 424.165 659.588 424.554 656.253C424.921 655.851 425.289 655.45 425.657 655.049C428.317 654.772 431.467 655.257 431.684 651.177C432.001 650.92 432.319 650.663 432.636 650.406C433.95 650.063 435.375 649.932 436.55 649.321C437.879 648.629 438.984 647.506 440.187 646.57C440.612 646.235 441.036 645.9 441.461 645.566C442.077 645.271 442.694 644.977 443.31 644.684C445.001 643.689 446.691 642.692 448.382 641.696C449.773 640.563 451.164 639.43 452.556 638.298C453.282 638.295 454.007 638.29 454.732 638.286C455.924 637.835 457.121 637.402 458.316 636.955C457.121 637.398 455.924 637.835 454.732 638.286C456.036 638.569 457.526 639.403 458.611 639.037C463.008 637.552 466.954 634.496 472.012 635.52C472.436 635.857 472.859 636.195 473.281 636.533C473.879 637.236 474.476 637.939 475.073 638.642C475.545 638.03 476.016 637.418 476.487 636.805C476.979 636.717 477.47 636.629 477.961 636.541C477.961 636.541 477.961 636.541 477.961 636.541C480.138 636.505 482.361 636.735 484.481 636.369C487.54 635.842 490.588 635.064 493.514 634.034C495.151 633.458 496.533 632.158 498.03 631.184C499.803 630.278 501.577 629.371 503.35 628.464C503.631 629.027 503.842 630.024 504.205 630.082C506.344 630.427 508.518 630.614 510.682 630.633C510.844 630.634 511.02 628.907 511.189 627.984C511.274 627.489 511.359 626.995 511.444 626.5C513.051 623.018 514.658 619.536 516.266 616.055C516.266 616.055 516.266 616.055 516.266 616.055C516.315 615.641 516.367 615.228 516.417 614.815C517.302 613.564 518.188 612.313 519.073 611.063C519.317 610.276 519.56 609.489 519.804 608.702C520.002 608.472 520.201 608.242 520.399 608.013C520.52 607.75 520.64 607.487 520.76 607.224C521.62 605.595 522.48 603.965 523.34 602.335C523.37 602.123 523.455 601.938 523.597 601.778C524.002 601.512 524.647 601.33 524.776 600.966C525.887 597.843 526.82 594.656 527.977 591.551C528.927 589.001 530.109 586.537 531.188 584.035C531.188 584.035 531.204 584.024 531.204 584.024C531.643 583.445 532.082 582.866 532.52 582.286C532.519 582.285 532.709 582.407 532.709 582.407L532.526 582.273C533.041 581.761 533.555 581.25 534.068 580.737C534.067 580.736 534.198 580.915 534.198 580.915L534.08 580.728C536.678 580.767 539.351 581.195 541.847 580.709C543.542 580.379 544.988 578.768 546.545 577.731C546.653 577.59 546.794 577.526 546.97 577.539C549.576 578.202 550.241 576.746 550.232 574.554C550.231 574.553 550.217 574.467 550.217 574.468C550.661 573.852 550.977 573.05 551.566 572.647C554.548 570.608 554.644 568.395 553.274 565.064Z" fill="#E040A0"/>
<path fill-rule="evenodd" clip-rule="evenodd" d="M420.868 499.942C420.46 500.228 420.051 500.513 419.641 500.798C419.137 500.992 418.634 501.187 418.131 501.381C418.407 501.719 418.683 502.056 418.958 502.393C418.854 503.285 418.798 504.185 418.636 505.067C417.823 509.494 416.537 510.075 412.305 508.624C410.451 507.988 408.104 507.418 406.382 508.001C397.288 511.079 387.995 513.892 379.496 518.221C376.688 519.652 371.866 522.577 373.11 528.446C373.956 532.439 369.776 537.362 365.264 538.446C362.686 539.066 361.653 540.252 361.198 542.712C360.65 545.673 358.685 547.634 355.721 545.998C351.883 543.88 349.8 545.322 347.931 548.509C347.569 549.126 346.85 549.535 346.912 549.478C343.294 547.382 339.957 545.638 336.851 543.549C335.741 542.802 334.582 541.266 334.491 540.014C334.104 534.659 329.94 531.668 324.872 533.411C324.165 533.655 323.01 534.119 322.724 533.828C318.951 529.996 315.573 533.284 312.249 534.463C300.924 538.481 300.722 538.596 302.275 550.179C302.838 554.379 304.825 558.384 306.12 562.491C306.917 565.019 307.522 567.615 308.447 570.093C308.784 570.996 309.865 571.596 310.489 572.423C311.915 574.314 313.695 576.089 314.547 578.225C315.697 581.112 316.111 584.292 316.839 587.336C311.158 588.882 302.259 583.376 300.951 577.73C296.215 576.368 294.94 574.573 294.772 569.873C294.738 568.917 293.488 568.004 292.799 567.072C292.577 566.786 292.356 566.5 292.134 566.213C291.765 565.735 291.397 565.257 291.028 564.779C291.456 562.219 291.884 559.659 292.313 557.098C291.414 555.161 290.512 553.223 289.352 550.728C289.504 550.39 289.974 549.348 290.445 548.307C291.086 547.632 291.728 546.958 292.371 546.283C292.362 545.195 292.351 544.108 292.341 543.02C292.433 542.26 292.525 541.501 292.617 540.742C292.966 540.103 293.367 539.487 293.652 538.822C294.739 536.286 302.286 531.465 304.541 532.619C307.598 534.183 309.912 533.067 311.011 530.976C311.949 529.19 311.415 526.454 311.019 524.229C310.858 523.32 309.401 522.142 308.428 522.035C307.645 521.949 306.808 523.602 305.812 523.933C303.534 524.691 301.144 525.112 298.799 525.669C298.296 521.877 294.601 521.996 292.321 520.382C291.965 519.99 291.609 519.599 291.253 519.207C291.111 518.148 290.969 517.089 290.827 516.031C290.901 515.522 290.975 515.013 291.05 514.505C291.492 512.183 291.934 509.861 292.376 507.538C292.462 505.494 292.549 503.45 292.635 501.406C296.811 498.635 297.37 494.504 297.19 489.942C297.114 488.02 297.706 486.068 298.03 484.136C298.188 483.191 298.427 482.259 298.629 481.321C298.707 480.573 298.785 479.825 298.863 479.076C301.566 476.187 301.499 472.471 299.4 469.981C296.193 466.175 298.39 464.638 300.189 463.2C302.822 465.691 305.387 467.712 307.451 470.157C311.505 474.959 315.732 479.753 316.289 486.484C316.299 486.612 316.288 486.757 316.344 486.864C317.495 489.051 319.027 493.207 319.748 493.071C322.661 492.521 325.865 491.193 327.946 489.129C330.572 486.522 332.133 482.863 334.314 479.772C335.013 478.78 336.105 477.89 337.215 477.399C340.578 475.91 342.64 472.195 346.915 472.053C347.747 472.025 348.314 469.201 349.327 467.924C350.267 466.739 351.556 465.173 352.836 465.023C360.682 464.11 360.696 464.228 362.618 456.681C365.163 456.681 367.862 456.941 370.488 456.614C373.596 456.227 376.457 455.392 376.262 451.072C376.127 448.081 378.79 446.92 381.499 448.329C386.619 450.99 391.521 451.962 397.371 449.324C401.58 447.426 405.691 446.3 407.151 441.378C411.486 441.102 412.741 437.064 415.351 434.68C415.526 434.52 415.875 434.342 416.044 434.412C420.262 436.169 424.463 434.882 428.616 434.232C433.174 433.52 437.77 432.75 442.154 431.378C443.656 430.908 444.564 428.543 445.93 426.807C447.454 428.55 449.016 430.26 451.476 428.119C451.864 427.782 453.149 428.393 453.985 428.669C458.918 430.3 467.566 428.04 470.754 423.902C471.746 422.614 472.055 420.622 472.213 418.909C472.464 416.169 473.729 415.072 476.26 416.023C479.39 417.199 481.041 415.811 482.409 413.218C483.065 411.974 484.129 410.944 485.72 408.904C486.192 410.96 486.504 411.838 486.581 412.737C486.907 416.566 488.964 417.548 492.508 415.721C496.765 413.526 501.102 411.486 505.431 409.433C506.073 409.128 507.336 408.785 507.502 409.024C509.594 412.035 512.57 411.166 515.418 411.093C516.062 411.076 517.022 411.511 517.322 412.034C518.649 414.341 520.493 415.621 523.177 415.748C523.627 415.769 524.133 416.153 524.481 416.502C527.53 419.558 527.695 429.423 525.455 433.091C524.165 435.205 523.776 438.09 523.677 440.655C523.556 443.78 523.704 446.8 521.375 449.293C520.968 449.73 520.474 450.51 520.605 450.961C522.549 457.625 518.133 462.804 516.479 468.595C515.102 473.414 512.804 477.724 508.16 480.483C505.086 482.31 505.452 484.29 508.594 486.095C510.453 487.162 512.488 488.182 512.364 491.241C512.329 492.097 515.491 493.943 517.037 493.793C519.12 493.592 521.174 492.067 523.029 490.8C525.088 489.392 526.456 486.248 529.725 488.773C529.967 488.96 530.852 488.418 531.38 488.113C534.323 486.415 537.248 484.686 541.163 482.391C542.925 494.969 544.482 506.089 546.167 518.124C538.736 515.843 532.946 519.129 526.911 521.319C525.461 521.843 523.613 521.564 522.008 521.294C518.502 520.706 514.997 520.023 511.574 519.081C510.544 518.797 509.496 517.69 508.951 516.69C506.829 512.799 503.048 510.711 499.48 512.789C496.226 514.684 493.687 514.868 490.338 511.984C490.097 514.127 490.199 515.668 489.682 516.961C489.342 517.81 487.927 519 487.304 518.839C483.023 517.731 478.9 515.734 474.575 515.155C470.722 514.639 468.36 512.707 466.03 510.086C461.346 504.816 460.178 504.981 455.685 510.231C454.629 511.465 452.424 512.396 450.805 512.316C447.983 512.175 445.22 511.064 442.404 510.501C439.558 509.933 437.261 509.099 437.436 505.452C437.484 504.448 436.519 503.395 436.02 502.364C435.592 501.031 435.163 499.7 434.734 498.369C433.479 497.885 432.224 497.401 430.968 496.916C428.247 495.417 425.877 495.674 423.982 498.31C423.832 498.448 423.656 498.5 423.454 498.465C422.566 498.957 421.717 499.45 420.868 499.942Z" fill="#E94A44"/>
<path fill-rule="evenodd" clip-rule="evenodd" d="M544.702 521.429C544.278 525.654 543.899 529.713 543.433 533.762C543.367 534.337 542.97 534.942 542.574 535.401C537.778 540.942 531.875 544.927 524.635 546.06C519.944 546.794 515.056 546.198 510.266 546.415C508.407 546.5 506.484 546.952 504.752 547.644C502.049 548.723 501.849 550.851 504.038 552.9C508.171 556.768 507.665 556.543 505.502 561.416C504.295 564.138 504.639 567.823 505.111 570.948C505.714 574.936 506.746 578.768 504.409 582.772C502.061 581.596 499.983 580.69 498.042 579.553C494.846 577.681 492.217 579.046 490.082 581.177C487.745 583.51 489.081 585.762 490.928 587.92C492.658 589.941 490.418 593.546 487.48 594.105C480.305 595.478 473.175 597.083 466.002 598.462C465.022 598.65 463.775 598.31 462.857 597.825C457.754 595.126 453.072 596.452 448.383 598.97C446.334 600.071 444.102 600.834 442.096 601.69C441.034 603.674 439.699 605.725 438.829 607.958C438.304 609.307 438.194 610.989 438.437 612.43C438.965 615.575 437.303 615.782 435.115 615.099C430.894 613.78 426.736 612.261 422.54 610.858C419.542 609.856 418.079 611.31 418.409 614.577C418.489 615.373 417.741 616.672 417.014 617.052C414.886 618.164 412.645 619.39 410.324 619.737C405.001 620.533 401.772 624.662 397.596 627.232C396.226 628.076 395.081 630.155 394.865 631.804C394.511 634.515 393.42 634.913 391.037 634.487C384.843 633.38 378.697 638.09 377.449 644.334C377.187 645.642 375.651 646.956 374.37 647.673C373.862 647.958 372.453 646.617 371.446 646.03C368.282 644.181 365.248 642.028 361.909 640.582C358.583 639.141 356.775 637.114 356.871 633.46C356.883 632.996 356.594 632.524 356.308 631.633C352.101 633.747 347.526 631.506 343.14 634.273C338.67 637.094 330.156 631.366 329.888 626.114C329.869 625.742 329.873 625.208 330.098 625.008C333.647 621.84 331.997 617.169 333.46 613.349C335.193 608.824 331.742 605.518 326.197 606.909C326.447 603.502 326.677 600.383 326.936 596.856C326.283 596.643 325.117 596.496 324.219 595.926C321.617 594.277 320.002 592.591 319.722 588.747C319.224 581.889 318.908 574.646 312.664 569.372C310.475 567.524 310.008 563.593 308.863 560.572C308.201 558.821 307.585 557.02 307.245 555.187C306.414 550.712 305.557 546.221 305.196 541.698C305.125 540.809 307.094 539.434 308.38 538.828C310.896 537.643 313.568 536.759 316.23 535.924C317.257 535.601 318.731 535.287 319.485 535.771C321.952 537.355 324.026 537.075 326.667 535.967C329.079 534.955 331.112 536.772 330.786 539.302C330.176 544.052 332.494 545.767 336.585 546.987C338.668 547.608 340.604 549.448 342.087 551.181C344.095 553.528 347.05 554.091 348.914 551.632C351.027 548.845 352.909 547.273 356.553 549.562C358.892 551.03 362.711 548.234 363.618 545.409C364.078 543.977 365.225 542.505 366.469 541.63C371.65 537.987 376.709 534.749 376.522 526.986C376.465 524.657 379.874 521.541 382.429 520.011C386.757 517.419 391.503 515.035 396.379 513.975C402.069 512.74 407.739 509.13 414.008 512.557C416.45 513.893 421.162 510.245 421.403 507.273C421.753 502.955 426.3 499.377 430.576 500.13C431.107 500.223 431.816 500.675 432.001 501.137C433.227 504.189 434.291 507.305 435.504 510.362C435.852 511.237 436.374 512.505 437.067 512.699C439.844 513.477 442.866 513.533 445.542 514.536C451.434 516.745 456.166 516.191 459.573 510.31C459.817 509.888 462.294 509.976 462.572 510.474C466.68 517.849 474.092 518.043 481.053 519.302C482.02 519.477 483.042 519.933 483.804 520.55C486.97 523.114 490.085 522.827 492.448 519.622C494.006 517.508 502.269 514.96 504.577 515.92C505.011 516.101 505.623 516.449 505.698 516.813C506.986 523.058 512.602 522.351 516.74 523.123C521.089 523.936 526.035 524.34 530.142 523.063C537.601 520.746 540.72 519.812 544.702 521.429Z" fill="#EE406A"/>
<path fill-rule="evenodd" clip-rule="evenodd" d="M522.004 331.6C520.901 330.46 519.955 328.757 519.778 327.21C519.25 322.584 519.346 317.883 518.743 313.271C518.532 311.658 517.226 309.993 516.007 308.76C514.574 307.311 512.189 306.646 511.104 305.041C508.491 301.176 505.963 297.136 504.228 292.833C502.849 289.411 502.693 285.495 501.953 281.581C500.784 281.79 499.611 282.001 498.814 282.143C497.276 280.114 495.996 278.424 494.546 276.51C492.507 278.55 489.982 279.956 489.245 282.006C486.028 290.95 477.518 291.108 470.587 293.912C470.297 294.03 469.67 293.91 469.518 293.685C466.745 289.584 461.371 293.202 458.294 289.923C458.099 289.715 456.892 290.017 456.596 290.412C453.758 294.192 449.385 293.82 445.482 294.368C443.958 294.582 442.216 293.395 440.604 292.77C439.816 292.464 438.855 291.448 438.385 291.662C433.999 293.655 431.49 291.317 429.727 287.787C425.65 290.719 421.976 293.362 418.09 296.156C419.535 298.006 420.646 299.556 421.888 300.992C424.95 304.533 428.126 307.977 431.156 311.545C434.275 315.217 432.325 319.507 431.765 323.315C431.584 324.545 427.571 325.776 425.214 326.003C419.976 326.507 416.793 329.2 414.744 333.793C414.414 334.531 413.343 335.507 412.71 335.443C409.798 335.147 408.652 336.95 407.511 339.085C406.193 341.553 404.896 344.076 403.224 346.3C401.075 349.155 398.803 352.025 396.085 354.29C395.033 355.168 392.568 354.654 390.835 354.319C389.324 354.027 387.994 352.823 386.482 352.508C384.043 352 381.111 352.589 379.135 351.435C376.655 349.987 375.042 347.121 372.82 345.13C371.993 344.389 370.518 344.315 369.311 344.068C367.47 343.691 365.616 343.328 363.749 343.153C362.539 343.039 361.155 342.948 360.097 343.411C357.253 344.657 354.461 346.074 351.802 347.678C349.641 348.981 346.872 350.229 345.839 352.251C343.708 356.426 341.929 360.574 337.312 362.644C336.732 362.904 336.171 363.839 336.107 364.511C335.691 368.828 333.059 372.003 331.125 375.639C329.181 379.293 329.337 384.007 328.059 388.096C327.382 390.262 325.412 393.871 324.372 393.753C320.107 393.272 316.083 397.177 311.764 394.294C311.275 393.968 309.695 394.91 308.85 395.56C307.128 396.885 305.629 398.502 303.9 399.815C303.155 400.381 301.679 401.055 301.19 400.721C296.953 397.827 293.233 401.236 289.285 401.413C287.372 401.498 284.842 401.514 283.602 400.418C279.359 396.668 275.138 392.732 271.747 388.234C269.479 385.226 268.382 381.575 263.534 382.42C262.97 382.518 262.189 381.373 261.508 380.804C261.274 380.81 261.053 380.765 260.845 380.668C260.845 380.668 260.845 380.669 260.845 380.668C259.938 381.513 258.662 382.198 258.213 383.24C257.587 384.692 257.579 386.411 257.307 388.016C257.307 388.016 257.292 388.033 257.292 388.033C256.536 389.018 255.252 389.942 255.13 391C254.856 393.383 255.156 395.832 255.222 398.254C255.223 398.254 255.22 398.283 255.22 398.283C254.754 398.418 254.106 398.404 253.852 398.713C252.458 400.408 251.16 402.182 249.828 403.929C249.309 405.223 250.593 407.707 249.873 408.633C245.213 414.626 247.211 422.495 243.787 428.811C242.895 430.457 244.363 431.674 246.442 430.808C247.526 430.787 248.61 430.765 249.694 430.744C250.15 430.369 250.607 429.995 251.064 429.62C251.063 429.62 251.063 429.621 251.063 429.622C251.909 429.613 252.754 429.604 253.6 429.596C254.11 430.113 254.62 430.629 255.131 431.145C255.665 433.437 255.83 435.924 256.897 437.932C257.392 438.864 259.993 439.62 261.03 439.14C263.858 437.829 266.361 435.818 268.993 434.083C269.452 434.072 269.91 434.06 270.368 434.048C270.853 434.385 271.545 435.125 271.791 434.998C275.184 433.256 278.515 431.394 281.862 429.563C281.865 429.561 281.868 429.56 281.871 429.559C283.231 428.652 284.595 427.742 285.959 426.832C286.517 426.269 287.074 425.704 287.631 425.139C290.775 422.77 293.813 422.982 297.01 425.204C299.137 426.683 301.529 427.782 304.297 429.328C305.136 432.653 302.847 437.484 307.124 440.585C307.098 441.049 307.072 441.512 307.047 441.976C307.047 441.976 307.047 441.976 307.047 441.976C306.697 442.314 306.238 442.593 306.013 443C303.243 448.029 306.446 452.739 306.825 457.604C306.826 457.604 306.836 457.636 306.836 457.635C303.183 462.394 303.425 463.494 308.652 467.463C309.957 468.454 311.374 469.584 312.116 470.982C315.157 476.716 320.399 481.5 320.039 488.763C320.025 489.038 320.475 489.336 320.687 489.597C325.879 488.292 328.439 484.897 329.395 479.801C329.697 478.185 330.919 475.828 332.182 475.478C336.003 474.418 338.619 471.077 341.779 470.063C344.914 469.058 346.378 467.896 347.41 465.24C347.638 464.653 347.934 463.955 348.416 463.632C349.631 462.818 351.235 461.332 352.214 461.634C356.519 462.965 358.47 461.23 359.394 457.27C360.132 454.107 361.273 452.221 365.249 454.128C368.545 455.71 373.088 452.995 373.136 450.147C373.212 445.654 377.312 443.395 381.753 444.991C386.324 446.633 391.068 450.399 395.762 445.009C396.01 444.724 396.969 444.956 397.564 445.093C400.417 445.75 401.803 444.104 403.542 442.109C406.631 438.565 410.25 435.471 413.768 432.324C414.306 431.842 415.586 431.786 416.36 432.036C421.223 433.608 425.866 430.958 430.87 431.341C434.684 431.632 440.427 430.284 443.288 425.44C444.111 424.045 445.866 423.201 447.473 421.873C448.202 423.488 448.693 424.578 449.025 425.314C450.896 425.425 452.474 425.254 453.894 425.651C458.624 426.973 462.706 424.963 466.677 423.081C467.843 422.528 468.727 420.343 468.857 418.83C469.258 414.139 470.37 412.595 474.897 412.872C477.873 413.054 479.508 412.081 481.176 409.657C482.209 408.156 484.664 406.784 486.375 406.901C487.471 406.976 488.382 409.866 489.357 411.505C489.598 411.911 489.766 412.36 490.008 412.876C494.321 410.894 498.368 408.762 502.623 407.193C504.755 406.407 507.282 406.372 509.602 406.503C511.827 406.631 514.613 408.444 516.205 407.643C518.419 406.528 518.652 403.474 517.628 400.847C517.495 400.506 517.574 400.083 517.552 399.698C517.15 392.722 512.738 388.221 505.67 387.149C504.618 386.989 503.057 385.466 502.984 384.48C502.789 381.846 502.683 379.431 500.409 377.573C499.872 377.133 499.628 375.923 499.765 375.159C500.012 373.783 507.305 370.11 508.905 370.369C512.953 371.023 515.296 369.262 515.798 365.299C515.941 364.177 516.401 363.1 516.647 361.987C517.874 356.42 520.252 350.998 517.788 345.086C516.666 342.394 519.048 336.507 521.606 335.378C524.424 334.133 523.616 333.266 522.004 331.6Z" fill="#EF5B3B"/>
<path fill-rule="evenodd" clip-rule="evenodd" d="M297.218 530.044C300.813 527.205 304.598 528.719 308.383 529.287C308.383 529.76 308.478 530.234 308.478 530.707C304.787 530.707 301.192 530.707 297.501 530.707C297.407 530.423 297.312 530.234 297.218 530.044Z" fill="#C30F08" fill-opacity="0.8"/>
<path fill-rule="evenodd" clip-rule="evenodd" d="M428.852 282.346C430.068 279.062 430.66 275.479 431.027 271.976C431.216 270.167 430.869 267.786 429.784 266.474C427.979 264.29 427.385 262.464 428.669 259.894C429.218 258.795 429.261 257.423 429.437 256.161C429.927 252.643 428.655 251.422 424.841 250.993C420.399 250.493 416.003 248.727 411.841 246.923C409.516 245.916 408.227 243.792 411.658 241.884C412.591 241.365 413.509 240.298 413.831 239.29C415.487 234.104 415.336 228.815 413.215 223.866C412.569 222.359 410.307 220.979 408.563 220.619C404.327 219.746 399.966 219.437 395.641 219.058C394.61 218.968 393.327 219.212 392.499 219.789C389.31 222.011 386.247 224.416 383.166 226.789C382.516 227.29 381.38 228.13 381.493 228.505C382.923 233.265 379.087 234.806 376.378 236.884C374.751 238.132 372.29 240.099 370.991 239.618C367.535 238.338 364.512 237.843 361.239 239.742C360.768 240.015 359.855 239.96 359.358 239.681C355.914 237.753 354.002 238.637 353.125 242.536C352.935 243.383 351.492 244.203 350.461 244.559C347.31 245.647 346.571 248.162 345.732 250.999C345.177 252.878 343.791 254.729 342.303 256.063C339.899 258.217 336.941 259.749 334.513 261.88C331.197 264.791 329.208 264.713 326.745 260.703C323.887 262.548 321.121 264.563 318.128 266.15C316.953 266.773 315.233 266.689 313.829 266.478C311.901 266.187 310.037 265.469 308.042 264.905C306.42 270.201 299.732 271.742 300.195 277.857C300.228 278.3 299.159 278.964 298.489 279.3C294.632 281.233 292.601 283.919 292.478 288.621C292.336 294.045 287.479 296.203 282.805 293.555C282.293 293.265 281.661 293.185 280.862 292.939C279.898 295.296 278.674 297.43 278.198 299.72C277.804 301.613 278.311 303.611 275.538 303.996C272.833 304.372 271.258 303.328 270.179 300.847C267.997 295.829 261.895 294.597 258.85 298.885C256.038 302.845 252.837 302.937 248.823 301.9C247.987 301.684 246.578 302.09 246.004 302.725C243.079 305.963 240.463 309.52 235.359 309.23C234.739 309.195 234.049 309.911 233.434 310.339C229.494 313.079 225.549 315.814 221.65 318.611C221.054 319.038 220.685 319.78 220.037 320.596C221.482 321.08 222.802 321.107 223.3 321.76C225.366 324.471 227.193 327.364 229.088 330.205C229.918 331.448 230.571 332.833 231.53 333.961C232.884 335.554 234.449 336.969 235.923 338.459L235.912 338.515C236.524 339.061 237.058 339.887 237.768 340.088C238.8 340.38 239.959 340.223 241.065 340.257C241.575 340.624 242.085 340.99 242.595 341.357C243.138 343.154 243.922 343.088 245.695 342.496C247.311 341.956 249.412 342.626 251.241 343.031C253.104 343.445 254.894 344.185 256.716 344.783C256.763 345.049 256.81 345.315 256.857 345.582C255.336 348.511 256.09 350.551 258.875 351.039C262.897 351.745 263.772 353.295 263.164 357.37C262.952 358.792 263.815 360.374 264.188 361.883C264.187 361.883 264.239 361.919 264.239 361.918C264.544 363.135 265.12 364.356 265.097 365.566C265.055 367.766 264.445 369.96 264.467 372.153C264.49 374.452 264.977 376.746 265.332 379.612C266.276 379.792 268.239 379.906 269.983 380.583C271.253 381.075 273.115 382.248 273.183 383.225C273.417 386.555 274.712 388.446 278.026 389.169C278.802 389.339 279.357 390.569 279.991 391.33C281.851 393.562 283.29 396.747 285.668 397.782C288.13 398.854 291.567 398.197 294.45 397.638C296.916 397.16 299.032 393.962 301.827 397.101C301.97 397.262 303.227 396.674 303.758 396.201C305.187 394.927 306.434 393.444 307.894 392.21C308.687 391.539 310.145 390.54 310.657 390.83C314.479 392.994 318.081 391.501 321.861 390.822C324.005 390.437 324.497 389.626 324.84 387.72C325.583 383.584 326.352 379.404 327.699 375.443C328.604 372.78 330.672 370.536 331.925 367.961C332.799 366.167 332.572 363.229 333.876 362.356C339.507 358.585 341.544 352.167 345.773 347.511C348.172 344.871 352.097 343.53 355.476 341.894C358.85 340.259 362.292 339.826 366.222 340.637C369.255 341.264 372.423 340.682 375.126 342.981C376.486 344.138 378.4 344.645 380.063 345.447C380.918 345.297 381.288 346.002 381.291 346.709C381.303 350.165 383.329 350.115 385.961 349.807C387.774 349.596 390.219 349.458 391.427 350.449C394.449 352.931 396.052 351.359 397.589 349.065C400.133 345.265 402.453 341.314 405.029 337.537C406.588 335.25 407.354 331.819 411.373 332.437C411.729 332.492 412.328 331.747 412.629 331.26C415.779 326.156 420.032 322.948 426.281 322.634C427.169 322.59 428.537 321.118 428.736 320.119C429.931 314.126 426.88 307.638 421.535 304.231C417.91 301.92 415.873 298.406 413.771 295.008C416.345 293.286 418.277 291.409 420.586 290.577C424.759 289.074 427.43 286.185 428.852 282.346Z" fill="#EC8044"/>
<path fill-rule="evenodd" clip-rule="evenodd" d="M240.894 296.295C234.467 294.789 233.079 290.948 234.247 284.37C234.959 280.358 232.291 279.487 230.514 277.898C229.525 277.013 227.261 277.345 225.602 277.484C224.245 277.597 222.958 278.443 221.597 278.606C217.238 279.127 212.817 280.03 208.503 279.699C205.872 279.497 202.705 277.866 201.034 275.841C199.199 273.618 202.105 271.69 203.371 269.657C204.378 268.041 204.674 265.611 204.407 263.663C204.042 261.011 203.661 258.716 205.724 256.501C206.268 255.916 206.204 254.114 205.706 253.317C202.873 248.777 199.713 244.441 196.93 239.873C196.271 238.79 196.078 236.805 196.629 235.723C198.106 232.824 197.117 232.186 194.319 231.921C187.195 231.247 182.592 235.619 178.026 239.914C173.979 243.719 169.37 245.018 164.694 242.797C162.574 241.789 160.98 241.406 158.683 242.719C156.104 244.193 152.994 241.946 152.645 238.839C152.517 237.696 152.645 236.526 152.602 235.371C152.443 231.193 151.383 230.564 147.649 232.536C145.175 233.843 142.881 236.074 140.301 236.439C137.406 236.847 135.555 238.08 133.915 240.085C129.255 245.779 124.503 251.311 116.635 252.558C116.545 252.573 116.52 252.995 116.41 253.458C117.255 253.643 118.095 253.79 118.915 254.014C125.051 255.686 128.952 262.917 125.865 267.172C123.388 270.585 120.701 273.873 117.836 276.964C116.601 278.296 114.789 279.311 113.047 279.902C110.289 280.838 109.138 282.189 109.6 285.276C109.859 287.008 109.54 289.446 108.459 290.64C105.538 293.866 101.995 296.518 98.8362 299.542C94.9029 303.308 90.8167 306.976 87.3438 311.143C84.5277 314.521 82.4836 318.551 80.1822 322.344C79.6913 323.153 79.4864 324.168 79.2937 325.118C78.9551 326.787 79.1331 328.7 78.3618 330.11C77.0818 332.449 77.8385 333.342 80.0675 333.252C83.3652 333.12 83.7415 334.922 83.8705 337.62C84.0445 341.259 85.0808 344.872 85.0925 348.498C85.1072 353.025 84.6004 357.572 84.0368 362.075C83.7131 364.662 81.5961 367.739 82.4459 369.618C84.5107 374.185 82.1691 378.078 81.3177 381.89C80.2422 386.707 77.2018 391.079 75.0808 395.676C74.6667 396.573 74.5094 397.612 74.3586 398.605C73.8801 401.751 73.5534 404.923 72.9929 408.053C72.4171 411.27 74.549 414.258 77.5143 414.137C77.8324 413.686 78.1503 413.235 78.4681 412.784C79.4858 411.798 80.5033 410.812 81.5209 409.827C81.7753 409.519 82.0297 409.21 82.2841 408.901C82.8474 408.481 83.8445 408.115 83.904 407.633C84.304 404.393 86.7688 402.916 89.0066 401.19C89.4502 400.847 89.6742 400.22 89.9992 399.724C90.8106 398.937 91.622 398.15 92.4335 397.363C93.9545 395.729 95.4755 394.096 96.9965 392.461C98.0176 392.368 99.0386 392.274 100.06 392.181C103.338 392.445 105.312 390.554 106.91 388.038C106.909 388.039 106.908 388.04 106.907 388.04C107.431 387.324 108.458 386.558 108.393 385.9C107.899 380.91 108.987 376.327 111.355 371.962C111.621 371.471 111.398 370.714 111.402 370.081C111.87 369.427 112.338 368.773 112.806 368.119C115.453 367.541 114.879 365.911 114.082 364.208C114.162 363.448 114.241 362.688 114.32 361.928C115.415 360.032 116.509 358.136 117.604 356.24C117.625 356.023 117.72 355.846 117.889 355.709C118.361 355.218 118.832 354.726 119.304 354.235C119.412 354.064 119.567 353.966 119.768 353.94C125.438 353.465 126.86 351.839 126.261 346.629C126.16 345.758 126.259 344.848 126.379 343.971C126.798 340.896 127.266 337.827 127.716 334.757C129.002 334.729 130.289 334.702 131.575 334.674C135.677 336.431 142.555 332.059 142.287 327.791C142.254 327.273 141.4 326.808 140.926 326.318C140.421 326.216 139.917 326.114 139.412 326.013C139.138 320.304 139.129 320.527 144.742 320.77C146.496 320.846 148.316 319.365 150.106 318.597C151.023 317.61 151.939 316.624 152.855 315.638C155.184 312.786 157.414 311.735 161.489 313.346C163.282 314.055 166.575 313.161 169.212 313.911C169.648 314.035 170.716 313.083 170.984 312.423C171.598 310.907 171.899 309.264 172.327 307.674C172.327 307.674 172.327 307.674 172.327 307.674C172.326 307.673 172.447 307.843 172.447 307.843L172.336 307.669C174.322 308.266 176.309 308.862 178.295 309.459C178.349 310.221 178.403 310.983 178.458 311.745C179.423 312.921 180.387 314.097 181.354 315.271C181.896 315.292 182.438 315.314 182.979 315.336C184.275 315.09 185.607 314.962 186.859 314.572C189.386 313.786 190.181 312.326 188.295 310.071C187.861 309.405 187.425 308.739 186.989 308.074C187.017 307.198 187.046 306.322 187.073 305.446C187.634 305.058 188.195 304.67 188.757 304.282C189.514 304.216 190.271 304.149 191.028 304.083C192.619 303.727 194.211 303.372 195.801 303.018C195.802 303.016 195.818 303.043 195.818 303.043C196.389 304.354 196.602 306.271 197.6 306.86C200.447 308.543 201.177 311.082 201.921 313.977C202.638 316.766 203.835 319.484 205.22 322.016C205.631 322.768 207.39 322.782 208.532 323.135C208.679 322.17 208.826 321.206 208.973 320.241C209.504 319.479 210.034 318.717 210.565 317.956C211.271 317.595 211.977 317.234 212.683 316.875C213.16 316.823 213.637 316.77 214.114 316.717C215.149 317.272 216.183 317.827 217.255 318.403C218.171 317.675 219.1 316.822 220.14 316.136C221.672 315.125 223.317 314.284 224.854 313.279C228.676 310.781 232.431 308.179 236.278 305.721C238.353 304.395 240.912 303.643 242.631 301.987C245.423 299.298 244.754 297.2 240.894 296.295Z" fill="#FFA14A"/>
<path fill-rule="evenodd" clip-rule="evenodd" d="M954.218 522.398C956.447 521.295 957.913 518.611 959.625 516.551C959.965 516.142 960.134 515.155 959.872 514.761C957.435 511.043 954.881 507.402 952.359 503.738L952.336 503.715C950.986 502.743 949.629 501.763 948.271 500.791C948.055 500.737 947.878 500.614 947.747 500.437C946.844 498.948 945.942 497.451 945.039 495.962C944.9 495.716 944.761 495.469 944.623 495.222C944.222 494.728 943.867 494.096 943.481 493.556C943.103 493.016 942.695 492.561 942.201 492.422C941.468 492.221 940.188 493.563 939.332 494.396C938.822 494.89 938.653 495.739 938.337 496.425C937.365 496.433 936.393 496.448 935.421 496.464C934.01 492.044 930.183 490.57 926.435 488.866C924.784 488.117 923.396 486.775 921.884 485.703C922.092 485.379 922.301 485.047 922.509 484.723C920.349 484.492 917.68 484.769 918.367 481.368C919.331 476.593 916.862 473.129 914.093 469.75C913.731 469.465 913.376 469.179 913.014 468.894C912.451 467.498 911.957 466.079 911.317 464.713C909.581 461.01 910.522 457.709 913.947 455.364C914.479 455.001 915.027 454.261 915.065 453.659C915.22 451.561 915.15 449.447 915.173 447.341C919.77 446.67 921.568 444.209 921.344 438.856C923.211 439.026 924.684 438.748 924.283 436.303C924.283 436.272 924.275 436.249 924.275 436.225C924.275 436.071 924.337 435.955 924.46 435.855C925.432 434.459 927.522 432.376 927.168 431.798C925.941 429.807 924.005 427.138 922.077 426.899C917.132 426.29 913.623 424.523 911.695 419.818C911.401 419.1 910.406 418.676 909.736 418.121C909.751 417.087 909.766 416.053 909.789 415.02C912.165 413.87 913.307 412.358 913.307 410.723C913.307 408.972 911.988 407.067 909.435 405.316C909.597 402.153 909.982 399.322 909.836 396.529C909.635 392.711 908.262 388.8 908.802 385.144C909.381 381.248 908.162 378.625 905.485 375.362C904.251 376.735 903.156 377.962 902.061 379.181C901.606 379.196 901.158 379.219 900.703 379.235C899.299 375.833 895.52 373.627 895.52 369.461C895.52 369.276 895.528 369.098 895.543 368.913C895.581 368.42 894.44 367.556 893.699 367.324C889.85 366.121 889.149 362.619 889.341 359.703C889.642 355.098 886.557 352.945 884.173 350.145C884.12 349.698 884.073 349.243 884.019 348.795C887.12 347.607 885.755 344.907 885.924 342.817C886.025 341.521 885.732 339.168 885.184 339.037C883.256 338.567 880.764 337.718 879.731 340.711C879.268 340.696 878.805 340.68 878.35 340.665C876.522 335.18 874.362 334.177 871.215 337.371C870.197 337.463 869.179 337.564 868.161 337.664C867.628 337.51 867.096 337.363 866.564 337.209C866.41 337.101 866.356 336.947 866.394 336.762C865.97 333.074 864.882 329.31 865.299 325.715C865.8 321.357 865.307 317.345 863.247 313.72C861.843 311.236 863.278 307.124 859.113 306.214L859.059 306.16C858.557 304.378 858.056 302.604 857.555 300.822L857.501 300.768C857.971 298.215 858.45 295.661 858.92 293.116C859.954 292.044 861.257 291.11 861.897 289.845C862.159 289.321 861.172 287.546 860.409 287.261C858.203 286.436 855.819 286.073 853.505 285.525C851.091 282.286 848.013 284.26 845.16 284.461C844.65 284.422 844.134 284.384 843.625 284.353C842.29 283.689 841.017 282.833 839.617 282.409C834.426 280.851 828.688 281.422 823.921 278.066C821.599 276.431 818.884 275.351 816.354 274.016C816.146 273.97 815.968 273.87 815.837 273.708C814.842 272.774 813.97 271.663 812.852 270.931C807.198 267.243 801.421 263.741 795.798 260.015C787.776 254.693 779.592 249.856 769.904 248.143C766.457 247.534 763.147 246.207 759.715 245.474C757.802 245.066 755.496 245.096 755.708 248.012C755.932 251.044 754.628 251.661 751.898 251.615C748.604 251.553 745.156 259.12 747.03 261.998C747.169 262.206 747.748 262.137 748.118 262.198C748.365 262.669 748.604 263.139 748.843 263.61C749.067 264.304 749.267 264.998 749.514 265.685C749.838 266.611 750.74 268.038 750.447 268.346C749.668 269.172 748.38 269.912 747.285 269.928C746.128 269.951 744.917 269.179 743.806 268.609C741.083 267.212 738.137 268.909 737.574 272.257C737.497 272.766 737.427 273.268 737.358 273.769C736.132 273.322 734.882 272.913 733.679 272.404C732.568 271.933 731.542 271.108 730.393 270.877C727.23 270.244 724.022 269.835 720.828 269.341C719.239 266.78 717.859 264.034 715.915 261.782C715.475 261.273 712.876 257.609 711.541 261.836C710.577 261.882 709.613 261.928 708.649 261.967C707.801 261.373 706.944 260.779 706.096 260.185C706.096 260.177 706.134 260.146 706.181 260.116L706.088 260.169H706.08C704.476 258.573 702.725 257.092 701.298 255.348C700.334 254.16 699.509 252.679 699.185 251.206C698.73 249.115 699.331 246.678 698.506 244.819C696.94 241.27 694.441 238.138 692.775 234.621C691.332 231.574 690.068 228.612 686.512 227.532V226.151C687.175 225.557 688.224 225.063 688.417 224.346C688.895 222.549 689.073 220.659 689.204 218.792C689.296 217.426 689.512 215.884 689.026 214.688C687.43 210.792 685.617 206.974 683.658 203.24C683.372 202.7 681.845 202.824 680.889 202.639C680.372 202.593 679.855 202.538 679.346 202.484C678.498 201.852 677.649 201.219 676.808 200.587C676.793 198.55 676.77 196.506 676.754 194.47C677.796 192.094 678.837 189.718 679.878 187.334C681.143 186.686 683.449 186.077 683.488 185.367C683.673 181.495 685.602 180.546 689.049 180.955C690.075 181.071 691.186 180.438 692.266 180.145C693.839 180.284 695.421 180.43 696.994 180.569C697.912 181.749 698.799 182.96 699.81 184.048C699.879 184.125 701.19 183.446 701.414 182.906C704.453 175.57 702.856 168.497 699.74 161.685C698.892 159.811 697.295 157.767 695.513 156.949C692.243 155.445 691.363 158.754 689.96 160.744C688.772 160.952 687.576 161.169 686.381 161.377C685.501 161.392 684.622 161.408 683.743 161.423C683.735 161.415 683.735 161.415 683.735 161.415C682.817 158.769 681.891 156.124 680.966 153.47L680.896 153.37C680.441 152.891 679.978 152.421 679.516 151.943C679.192 151.657 678.868 151.372 678.536 151.086C677.919 150.33 677.302 149.582 676.693 148.834C676.685 148.379 676.677 147.916 676.67 147.461C679.331 142.778 679.037 141.205 675.165 139.546C675.096 138.783 675.019 138.027 674.949 137.263C675.05 136.792 675.35 135.982 675.227 135.913C673.268 134.81 671.918 133.429 672.018 130.953C672.034 130.575 671.232 129.942 670.699 129.788C667.406 128.839 666.094 126.61 666.002 123.301C665.994 122.915 664.56 122.568 663.78 122.198C663.518 122.151 663.264 122.097 663.001 122.051C663.603 117.515 663.11 113.535 657.641 112.455C655.797 112.085 653.877 111.984 651.987 111.953C649.974 111.93 648.431 111.629 648.369 109.107C648.323 107.124 647.567 105.782 645.199 105.551C644.628 105.497 644.235 103.638 643.757 102.612C643.749 102.612 643.749 102.612 643.749 102.612C644.436 100.776 645.214 99.2639 642.245 98.3151C639.584 97.4588 640.949 95.2604 641.821 93.5941C642.793 91.7351 643.857 89.93 644.921 88.0401C642.638 86.3585 640.741 84.9622 638.843 83.566H637.648C637.046 83.2883 636.444 83.0029 635.843 82.7252C635.55 82.1697 635.264 81.6066 634.979 81.0435C637.463 79.6781 639.815 77.6416 642.469 77.094C646.125 76.3534 648.824 74.7489 650.93 71.8408C650.946 71.0308 650.953 70.2131 650.969 69.4031C650.73 67.4283 650.498 65.4459 650.267 63.5482C648.902 63.8877 647.521 64.2271 646.148 64.5665C645.646 64.5048 645.137 64.443 644.636 64.3813C642.268 63.3168 639.9 62.2523 637.532 61.1801C636.745 61.3497 635.958 61.5272 635.164 61.6969C635.11 61.9437 635.126 62.3371 634.987 62.4065C631.215 64.1422 627.428 65.847 623.64 67.5595C622.923 67.5672 622.206 67.5749 621.488 67.5826C619.946 67.7446 618.403 67.9066 616.868 68.0686C616.66 68.3309 616.459 68.5932 616.259 68.8631C614.315 71.2313 611.052 72.9439 612.456 76.9782C612.634 77.4951 611.754 78.5828 611.122 79.1381C607.427 82.3703 603.462 84.9468 598.171 83.5969C597.407 83.6663 596.636 83.7434 595.865 83.8205C594.476 85.2708 593.211 86.8753 591.661 88.1172C590.604 88.9581 589.193 89.4594 587.858 89.7834C586.825 90.0303 585.675 89.7603 584.572 89.7217C584.572 89.714 584.534 89.6369 584.495 89.5829L584.557 89.7295C581.433 93.1621 577.137 92.6608 573.997 91.0871C570.025 89.0892 566.168 88.3872 561.949 88.4104C561.702 88.5184 561.456 88.634 561.216 88.742C560.152 91.7582 556.203 93.9953 553.503 92.6222C549.176 90.4237 545.504 91.5037 541.678 93.7716C540.699 94.3501 538.076 94.1881 537.891 93.7176C536.156 89.2512 533.009 90.2077 529.746 91.2183C528.705 92.2288 527.663 93.2393 526.622 94.2498C525.357 97.05 523.012 96.3789 521.246 95.3838C518.191 93.6636 515.453 93.7793 512.607 95.5458C512.484 95.7155 512.329 95.8157 512.129 95.8543C510.054 97.644 508.442 97.7674 507.408 94.7512C507.115 93.8872 506.421 92.8304 505.642 92.5065C500.79 90.4854 495.861 88.6495 490.963 86.7518C488.919 86.8367 486.875 86.9138 484.831 86.9987C484.353 86.9987 483.875 87.0064 483.389 87.0064C482.633 86.9216 481.877 86.829 481.121 86.7441C478.637 82.8486 477.596 86.4896 476.686 87.8395C474.819 90.6088 473.369 93.6636 471.75 96.5948C470.762 96.2246 469.783 95.8543 468.795 95.4763C468.186 91.5499 466.798 89.7603 464.19 89.7603C463.481 89.7603 462.679 89.8914 461.776 90.1537C461.244 90.1537 460.704 90.1537 460.164 90.146C459.84 89.9532 459.524 89.6214 459.192 89.5983C455.12 89.3592 453.808 91.4265 454.202 97.4048L454.186 97.4125C449.319 97.0268 444.545 96.9188 440.171 99.7807C438.721 100.73 436.623 102.018 435.296 101.601C430.537 100.112 429.357 103.406 427.745 106.399L427.706 106.438C427.166 107.217 426.627 107.988 426.087 108.768C425.956 109.261 425.832 109.763 425.701 110.256C425.701 110.256 425.701 110.256 425.701 110.264C425.107 111.275 424.421 112.247 423.935 113.311C421.698 118.256 420.117 123.625 417.093 128.014C415.404 130.467 413.452 132.257 413.923 135.466C413.977 135.859 413.992 136.198 413.961 136.499C414.702 138.952 416.221 152.027 410.066 158.183C403.895 164.354 401.581 163.583 400.039 166.669C398.843 169.06 397.702 171.505 396.151 173.179C396.143 173.195 396.136 173.202 396.128 173.21C396.02 173.326 395.912 173.441 395.796 173.542C395.426 173.835 395.056 174.128 394.686 174.429C394.686 174.429 394.678 174.429 394.678 174.437C394.246 174.776 393.814 175.123 393.374 175.47C391.863 176.581 390.266 177.607 388.847 178.833C387.181 180.261 385.63 181.842 384.095 183.416C383.139 184.403 382.483 186.038 381.357 186.447C377.593 187.828 377.5 190.613 377.524 193.907C377.547 197.625 377.038 201.343 376.76 205.061C376.737 205.439 376.552 205.917 376.714 206.18C379.244 210.361 381.735 214.572 384.458 218.63C385.044 219.509 386.486 219.818 387.597 220.412C389.556 215.282 391.577 214.611 396.545 215.992C399.437 216.802 402.554 216.817 405.631 216.894C412.434 217.056 415.164 219.748 416.97 226.298C418.258 230.98 418.682 235.292 416.731 239.735C416.028 241.317 415.257 242.867 414.031 245.474C417.355 246.23 420.541 247.434 423.78 247.596C431.794 248.005 434.911 252.679 431.964 260.355C431.532 261.496 431.178 263.394 431.771 264.081C436.222 269.195 434.386 274.641 433.013 280.103C432.365 282.679 430.098 285.24 433.075 287.778C433.553 288.187 434.062 288.927 434.548 288.92C441.074 288.827 447.46 292.591 454.279 288.187C456.994 286.428 461.876 287.917 465.764 288.125C467.762 288.225 469.736 288.742 471.588 289.838C474.411 289.151 477.727 289.159 479.933 287.6C482.656 285.672 484.808 282.648 486.521 279.694C487.415 278.151 487.384 276.377 489.76 276.153C490.431 276.084 490.925 274.764 491.611 274.163C492.63 273.268 493.663 272.126 494.874 271.833C495.429 271.694 496.417 273.314 497.196 274.147C498.661 275.698 499.301 278.429 502.526 277.48C502.989 277.341 504.493 279.084 504.724 280.126C505.449 283.481 505.187 287.176 506.444 290.277C508.38 295.06 511.234 299.472 513.756 304.016C514.05 304.54 514.713 305.242 515.183 305.227C523.382 304.941 520.729 312.077 522.233 316.026C523.29 318.811 522.318 322.298 522.665 325.43C522.835 326.98 523.984 328.407 524.578 329.927C525.45 332.164 526.221 334.44 527.008 336.623C520.991 339.13 520.081 340.511 521.115 346.643C522.472 354.666 520.043 362.071 517.582 369.399C517.019 371.089 514.266 372.315 512.275 373.187C509.475 374.406 506.444 375.1 503.706 375.956C504.786 378.687 505.457 380.801 506.452 382.737C506.845 383.485 507.917 384.017 508.797 384.364C516.194 387.311 520.567 392.48 520.968 400.633C520.991 401.142 520.922 401.802 521.2 402.13C523.313 404.629 522.534 406.234 519.726 407.044C520.336 408.941 520.868 410.6 521.431 412.343C526.761 413.662 529.908 417.882 530.394 424.601C530.672 428.373 530.378 431.852 527.764 435.092C526.595 436.542 526.776 439.141 526.514 441.247C526.391 442.204 526.985 443.307 526.73 444.194C523.545 455.217 521.585 466.657 516.209 476.932C514.983 479.269 512.522 480.959 510.602 482.972C512.221 485.009 514.08 487.346 516.425 490.293C517.142 490.038 519.48 489.907 520.552 488.681C524.725 483.89 531.212 484.638 536.171 481.63C540.653 478.907 544.07 479.817 545.026 486.05C545.427 488.634 546.453 490.794 545.188 493.525C544.679 494.613 546.283 496.541 546.507 498.138C547.178 502.959 547.124 507.935 548.312 512.602C549.608 517.708 549.122 522.236 546.769 526.788C546.384 527.528 546.353 528.585 546.476 529.441C547.132 533.807 546.168 537.325 542.319 540.048C540.445 541.375 541.563 546.389 543.885 547.607C545.551 548.487 547.448 549.181 549.307 549.389C554.498 549.983 556.365 553.262 555.208 558.422C554.683 560.767 556.002 563.521 556.434 565.812C565.011 562.904 573.211 560.274 581.286 557.304C584.086 556.27 587.126 554.874 585.529 550.539C585.205 549.644 586.694 548.086 587.349 546.836L587.372 546.844C589.447 546.589 590.944 545.895 591.931 544.645C592.926 543.396 593.42 541.598 593.504 539.122H593.497C593.998 538.59 594.499 538.065 595.001 537.533L595.086 537.71L595.024 537.525C598.41 537.587 601.804 537.548 605.19 537.741C607.481 537.872 608.777 537.008 609.139 534.748L609.193 534.694C609.872 533.854 610.551 533.005 611.23 532.164C612.842 530.467 614.454 528.778 616.066 527.081C616.482 526.718 616.907 526.363 617.331 526.001C617.917 525.522 618.499 525.044 619.082 524.566C619.182 524.412 619.313 524.334 619.498 524.334C620.432 524.049 621.388 523.833 622.298 523.478C625.376 522.275 630.559 523.008 631.948 524.882C634.694 528.585 636.444 528.369 639.214 523.972C639.507 523.694 639.792 523.417 640.085 523.139C642.885 521.92 645.677 520.709 648.477 519.498C648.986 519.452 649.488 519.413 649.997 519.374C655.766 519.991 661.536 520.616 667.298 521.233C667.66 521.426 668.031 521.619 668.393 521.804C669.758 523.609 671.116 525.414 673.8 524.065C674.571 524.103 675.335 524.149 676.106 524.188C676.4 524.242 676.7 524.288 676.993 524.342C680.063 524.905 683.126 525.607 686.219 525.823C687.977 525.947 689.79 524.759 691.603 524.658C695.182 524.458 698.784 524.589 702.378 524.597C707.214 524.612 707.762 525.144 707.808 529.819C707.878 536.615 707.924 543.419 707.978 550.215L707.793 550.138L707.97 550.23C707.438 550.747 706.898 551.256 706.366 551.773C705.54 552.182 704.723 552.583 703.905 552.992C702.856 553.408 701.815 553.833 700.774 554.249C700.002 554.311 699.239 554.365 698.467 554.427C697.01 554.589 695.536 554.681 694.071 554.828C692.605 554.974 691.155 555.159 689.744 555.522C688.625 555.807 687.576 557.443 687.067 558.693C686.627 559.772 687.005 561.176 687.021 562.441C684.931 563.035 682.84 563.629 680.079 564.409C681.945 566.823 683.249 568.497 684.545 570.171L684.591 570.24C686.712 569.847 688.826 569.453 690.947 569.06C691.448 569.021 691.949 568.975 692.459 568.937C695.559 569.538 698.668 570.132 701.769 570.734C702.262 573.033 703.026 574.653 705.271 574.653C705.749 574.653 706.296 574.576 706.921 574.421C709.551 573.766 712.483 573.727 715.182 574.082C717.851 574.437 721.746 572.184 722.556 569.6C722.98 568.281 724.438 567.263 725.495 566.175C727.014 564.609 730.609 565.157 730.146 561.577C730.231 561.408 730.37 561.331 730.562 561.331C734.62 561.076 738.677 560.822 743.035 560.552C743.182 559.857 743.451 558.538 743.853 556.664C746.591 557.157 749.113 557.62 752.137 558.176C752.43 557.597 752.923 556.633 753.417 555.669L753.533 555.553C753.98 555.028 754.435 554.504 754.89 553.971L754.914 553.948C757.289 553.964 760.251 556.047 761.547 552.213C762.233 550.184 763.815 549.821 765.566 549.575H767.209C768.149 549.613 769.222 549.96 770.024 549.636C773.541 548.194 777.028 545.224 780.452 545.332C784.625 545.463 787.101 544.105 789.963 541.645C794.112 538.096 794.645 534.077 790.719 531.454C790.734 530.999 790.75 530.544 790.765 530.089C791.829 529.271 792.902 528.461 794.313 527.389C795.123 527.505 797.098 527.219 798.324 528.045C802.158 530.621 805.729 529.634 809.292 527.852C810.472 527.266 811.36 526.078 812.332 525.114C814.923 522.56 818.541 523.895 820.523 527.644C821.364 529.241 823.377 530.212 824.858 531.47C825.398 530.683 825.938 529.904 826.478 529.117C827.033 528.485 827.588 527.844 828.152 527.212C828.961 526.286 829.771 525.368 830.581 524.45C831.476 525.013 832.533 526.163 833.219 525.978C834.075 525.738 834.631 524.388 834.947 523.98C837.624 524.936 840.3 526.194 843.108 526.818C845.792 527.412 848.623 527.343 851.384 527.567C851.461 532.072 853.042 533.337 857.208 532.226C858.534 531.871 859.861 531.161 861.188 531.177C867.281 531.238 872.472 529.58 875.966 524.265C877.135 526.14 878.134 528.184 879.576 529.842C880.132 530.475 881.705 530.205 882.816 530.351C883.325 530.421 883.834 530.498 884.335 530.567C888.477 533.614 893.183 534.594 898.235 534.679L898.266 534.717C898.682 538.042 900.796 539.801 903.827 540.688C904.436 544.283 905.724 547.43 909.195 549.204C909.998 549.968 910.792 550.739 911.594 551.511C911.872 552.035 912.15 552.568 912.427 553.092C910.723 555.229 911.023 556.54 913.939 556.787L913.962 556.818C913.808 558.785 912.89 561.392 916.091 561.477C919.068 561.554 918.128 558.893 918.382 557.134C918.868 553.702 919.408 550.276 919.924 546.844C920.31 546.797 920.704 546.751 921.089 546.705C922.756 546.489 924.483 546.427 926.172 546.265C927.861 546.103 929.528 545.856 931.063 545.278C934.341 544.059 938.815 544.892 940.674 540.642L940.897 540.518L941.152 540.534C942.031 540.572 943.358 541.02 943.736 540.603C946.798 537.178 950.809 537.811 954.712 537.61C956.987 537.494 957.404 535.805 956.463 534.015C955.514 532.218 954.064 530.683 953.169 528.863C952.051 526.61 950.261 524.365 954.218 522.398Z" fill="#DA6742"/>
<path fill-rule="evenodd" clip-rule="evenodd" d="M106.318 288.923C103.167 286.093 100.593 283.804 98.0469 281.484C96.627 280.19 94.7523 279.086 93.97 277.468C92.5169 274.462 90.7841 272.927 87.2203 272.932C86.1308 272.933 84.9131 270.364 83.9789 268.835C82.8687 267.018 82.0009 265.053 80.6355 262.385C76.242 267.129 71.4101 266.762 66.5201 267.137C63.7224 267.352 60.7236 269.489 58.5017 271.514C55.7149 274.053 53.6317 277.365 51.2448 280.344C50.9745 280.173 50.7042 280.002 50.4339 279.831C50.4339 277.382 49.8392 274.74 50.5591 272.526C52.0077 268.07 50.4364 265.088 47.1376 262.46C46.6505 262.072 46.2718 261.548 45.6716 260.903C46.2802 260.322 46.7261 259.524 47.3184 259.394C50.5667 258.681 53.9203 258.374 57.1047 257.463C60.9117 256.373 63.4821 253.248 63.5522 249.616C63.7458 239.586 69.4478 231.895 73.4405 223.42C76.87 216.141 83.084 214.383 90.1467 214.333C97.7378 214.28 105.441 214.616 112.32 210.975C115.444 209.321 119.271 206.667 120.195 203.669C122.084 197.544 127.241 196.858 131.57 195.16C136.093 193.386 141.142 192.951 145.962 191.938C146.211 191.886 146.534 191.792 146.72 191.899C151.028 194.362 155.254 192.936 159.601 191.929C160.755 191.662 162.406 192.771 163.599 193.585C167.577 196.298 170.016 195.544 171.321 191.027C173.594 183.156 174.422 182.984 182.341 184.267C184.993 184.697 188.167 183.106 190.825 181.851C192.401 181.107 193.294 180.183 195.17 181.415C197.121 182.696 198.771 181.832 199.472 179.41C200.612 175.469 207.046 173.353 211.126 173.491C214.09 173.591 217.88 171.405 219.965 169.054C222.018 166.739 222.221 162.859 223.548 159.802C224.608 157.359 226.556 157.409 228.061 159.355C232.339 164.884 234.898 164.734 241.156 160.697C243.299 159.315 245.37 157.678 247.714 156.803C249.115 156.279 251.583 156.419 252.478 157.332C253.441 158.314 253.392 160.567 253.282 162.233C253.194 163.561 252.343 164.835 251.847 166.139C249.92 171.211 255.028 177.504 260.499 177.173C265.762 176.854 271.229 176.305 275.011 181.44C276.286 183.17 277.85 182.848 280.002 182.453C286.169 181.319 292.118 179.777 297.815 176.404C299.408 181.917 303.763 182.017 308.185 182.297C308.275 183.877 308.384 185.255 308.427 186.635C308.686 194.988 315.757 202.089 324 201.09C330.476 200.304 336.771 198.021 344.279 196.117C348.291 199.832 353.706 198.154 359.451 195.836C362.927 194.434 366.851 194.083 370.606 193.45C373.414 192.975 374.827 194.622 374.603 197.227C374.382 199.808 373.527 202.329 373.123 204.903C372.969 205.891 372.962 207.168 373.462 207.945C375.338 210.865 377.473 213.617 379.467 216.463C380.838 218.419 382.136 220.427 383.782 222.88C382.988 223.357 381.752 223.775 381.008 224.625C380.006 225.771 378.814 227.202 378.7 228.593C378.292 233.566 372.811 236.485 368.169 235.678C363.301 234.831 358.086 235.981 353.022 236.259C352.11 241.068 347.196 241.996 344.592 245.09C343.227 246.711 343.203 249.418 342.383 251.562C342.057 252.412 341.234 253.687 340.608 253.705C337.145 253.804 335.422 256.015 333.692 258.527C333.138 259.331 331.261 260.305 331.026 260.087C327.01 256.348 323.171 259.119 320.154 261.05C316.71 263.253 313.631 263.221 310.188 262.201C306.658 261.154 304.501 262.04 303.724 265.893C303.53 266.853 302.403 267.647 301.647 268.463C300.787 269.392 299.182 270.19 299.083 271.166C298.64 275.514 295.254 277.4 292.714 280.188C290.826 282.259 290.309 285.569 289.137 288.308C288.619 289.517 288.267 291.208 287.327 291.699C286.523 292.118 284.711 291.464 283.829 290.714C281.417 288.664 279.543 289.886 278.34 291.742C276.716 294.246 275.683 297.133 274.283 300.098C274.038 299.983 273.363 299.883 273.261 299.587C271.443 294.289 266.739 293.573 262.348 293.557C260.271 293.549 257.972 295.735 256.159 297.357C254.058 299.239 249.859 299.615 247.736 297.907C245.617 296.202 243.372 294.56 240.955 293.341C237.167 291.432 235.233 287.462 237.16 283.597C238.703 280.504 237.516 278.928 235.163 277.191C230.872 274.024 226.878 273.899 221.608 275.625C216.781 277.207 211.068 276.388 205.773 276.107C203.424 275.982 203.402 273.922 204.994 272.481C208.345 269.446 208.551 266.027 207.076 262.004C206.733 261.069 207.429 259.33 208.213 258.484C210.62 255.883 210.377 253.947 208.074 251.202C204.911 247.433 202.348 243.137 199.785 238.91C199.256 238.038 199.427 236.208 200.013 235.288C202.162 231.91 200.172 230.581 197.478 229.597C192.641 227.833 188.101 229.133 183.911 231.542C181.492 232.933 179.406 234.918 177.227 236.705C173.468 239.789 169.81 242.171 164.507 239.609C162.471 238.626 159.564 239.449 156.685 239.449C156.15 237.208 155.722 234.354 154.772 231.685C153.429 227.907 151.627 227.47 147.974 229.162C144.544 230.75 140.804 231.739 137.541 233.591C134.936 235.071 132.497 237.17 130.593 239.493C126.609 244.352 122.717 248.94 115.737 249.374C114.583 249.446 112.766 251.385 112.69 252.554C112.619 253.633 114.325 255.048 115.532 255.923C116.636 256.724 118.161 256.916 119.429 257.525C124.502 259.966 124.958 263.449 121.558 267.83C118.071 272.322 114.776 276.617 109.098 278.745C106.518 279.712 105.658 282.66 106.449 285.712C106.73 286.799 106.369 288.052 106.318 288.923Z" fill="#C30F08" fill-opacity="0.1"/>
<path fill-rule="evenodd" clip-rule="evenodd" d="M410.915 138.073L410.884 138.042C410.529 137.895 410.213 137.726 409.936 137.541C407.398 135.867 407.73 132.75 407.159 130.212C406.603 127.752 406.642 125.322 403.156 125.353C402.793 125.353 402.407 124.057 402.037 123.362C401.898 122.074 401.759 120.794 401.621 119.513C399.376 119.405 397.131 119.235 394.879 119.189C391.516 119.127 387.621 120.925 385.569 116.443C385.214 116.011 384.86 115.579 384.505 115.147C383.834 113.218 383.039 111.321 382.515 109.354C382.005 107.425 381.782 105.427 381.427 103.468C381.265 102.403 381.103 101.339 380.941 100.274C379.283 99.1559 377.887 96.9805 375.465 98.8936C374.886 99.2561 374.308 99.6186 373.729 99.9735C373.266 99.989 372.796 100.004 372.325 100.02C370.312 100.737 368.299 101.447 366.286 102.164C365.823 102.411 365.368 102.658 364.905 102.897C364.257 103.283 363.617 103.668 362.969 104.047C362.676 104.34 362.383 104.625 362.09 104.91C361.095 105.906 360.1 106.901 359.105 107.888C358.966 108.042 358.796 108.135 358.596 108.166C357.994 114.484 353.628 118.14 347.018 117.029C343.547 116.451 340.762 116.721 338.117 118.973C337.824 119.22 337.168 119.05 336.682 119.073C335.972 119.12 335.263 119.158 334.553 119.204C333.35 118.148 331.915 117.253 330.974 115.995C328.992 113.303 327.303 110.387 325.413 107.626C323.245 104.463 325.351 102.828 327.573 101.185C327.781 100.136 327.982 99.0865 328.182 98.0373C329.1 97.0808 329.879 95.9006 330.974 95.2218C333.327 93.7561 334.492 92.0282 333.404 89.2126C331.792 85.047 330.249 80.8506 328.591 76.4382C322.412 77.8267 316.219 79.2461 310.009 80.5806C309.184 80.7658 308.258 80.5421 307.387 80.5112C306.415 80.519 305.443 80.5266 304.471 80.5343C303.877 80.2489 303.276 79.9712 302.674 79.6858C301.81 79.655 300.946 79.6164 300.082 79.5855C300.946 79.6164 301.802 79.6473 302.666 79.6781C301.957 76.4768 299.758 78.143 298.146 78.4207C294.398 79.0533 290.564 77.8191 289.839 75.5049C288.582 71.4704 287.355 67.4129 286.114 63.363C286.191 62.8616 286.268 62.3602 286.353 61.8511C287.741 59.6372 288.875 57.2073 290.58 55.2711C292.647 52.9261 292.03 51.769 289.453 50.8587C288.952 49.9793 288.443 49.0999 287.942 48.2128C287.533 47.7577 287.124 47.3026 286.715 46.8474C285.952 46.778 285.188 46.7086 284.424 46.6315C283.506 45.6055 282.627 44.5255 281.648 43.5613C280.768 42.6896 279.812 41.8951 278.824 41.1545C278.138 40.6377 277.336 40.2751 276.588 39.8431C276.287 40.6454 275.832 41.4322 275.724 42.2576C275.616 43.1293 275.839 44.0318 275.917 44.9267C275.785 45.0655 275.631 45.1118 275.446 45.0655C273.749 45.567 272.052 46.076 270.355 46.5852C269.329 46.67 268.303 46.7626 267.278 46.8552C264.377 47.5648 266.452 49.7171 266.036 51.1441C266.036 51.1519 266.005 51.1827 266.005 51.1827C265.149 51.7612 264.285 52.3475 263.429 52.9338C261.678 52.9261 259.927 52.9261 258.176 52.9261C257.065 51.1441 255.993 51.1287 254.959 52.9955C254.203 53.0803 253.455 53.1652 252.699 53.25C251.936 53.7823 250.601 54.2297 250.501 54.8623C250.247 56.4591 250.555 58.1407 250.632 59.7838C250.679 59.9689 250.632 60.1309 250.501 60.2698C248.673 61.4114 246.614 62.3062 245.094 63.7642C243.605 65.1913 242.317 65.6927 240.505 64.767L240.451 64.7053C239.371 63.9262 238.291 63.1471 237.211 62.3602C236.532 62.9773 235.861 63.5945 235.182 64.2116C234.056 64.7901 232.923 65.3687 231.796 65.9473C231.033 66.0244 230.269 66.0938 229.505 66.1709C224.685 69.9431 221.838 70.2902 217.295 67.6829C216.532 67.6134 215.76 67.544 214.997 67.4746C209.805 68.1149 207.615 71.9333 207.199 77.8036C206.89 82.1157 204.8 86.3044 203.504 90.5471C203.473 90.7553 203.365 90.9174 203.188 91.0254C202.501 93.6944 201.853 96.3789 201.105 99.0325C200.388 101.617 201.028 102.789 203.967 102.959C205.224 103.028 207.229 104.463 207.391 105.512C207.592 106.793 206.52 108.667 205.432 109.655C203.188 111.683 200.565 113.296 198.112 115.093C196.531 116.25 196.06 117.461 197.433 119.274C199.585 122.12 201.568 125.113 203.443 128.13C205.764 131.801 204.924 135.211 201.345 136.823C199.617 137.602 197.735 138.05 195.976 138.767C190.87 140.858 185.787 143.01 180.958 145.031C181.259 148.649 182.81 149.551 185.448 149.258C190.137 148.734 194.927 148.71 199.525 147.769C203.574 146.944 207.415 145.108 211.364 143.781C212.533 143.388 213.794 143.234 214.997 142.917C217.643 142.223 220.296 141.567 222.903 140.765C225.071 140.094 227.146 138.767 229.321 138.605C231.627 138.435 234.103 139.492 233.91 142.47C233.556 148.008 235.615 153.64 233.332 159.117C233.201 159.433 233.641 159.988 234.126 161.246C238.083 158.901 241.871 156.872 245.426 154.496C248.689 152.313 251.674 152.629 254.582 154.843C257.382 156.964 257.49 159.703 256.017 162.719C255.408 163.969 255.053 165.342 254.536 166.638C253.664 168.836 254.181 170.41 256.079 171.999C259.04 174.483 262.388 173.542 265.612 173.611C268.805 173.681 271.622 174.028 274.012 176.704C275.262 178.116 277.637 179.898 279.049 179.566C284.394 178.317 289.686 176.566 294.746 174.413C297.561 173.21 299.643 173.318 300.924 175.856C302.328 178.648 304.426 179.427 307.179 179.289C309.725 179.15 310.997 180.23 311.167 182.814C311.275 184.465 311.815 186.085 311.939 187.735C312.193 191.168 316.528 196.822 319.798 197.771C320.408 197.941 321.086 198.242 321.657 198.118C328.414 196.637 335.665 197.023 341.72 192.711C342.506 192.148 344.643 192.441 345.468 193.143C348.585 195.789 351.778 195.187 355.249 194.231C361.242 192.572 367.297 191.16 373.252 189.664C375.411 187.72 378.736 186 380.016 183.315C382.292 178.517 386.21 176.45 390.437 174.622C391.062 174.352 391.702 174.082 392.342 173.812C393.214 172.67 394.085 171.521 394.957 170.379C395.019 170.055 395.073 169.739 395.134 169.422C395.25 169.284 395.373 169.137 395.481 168.99C396.754 167.386 397.911 165.712 398.451 164.354C399.994 160.497 404.622 158.183 407.707 155.098C410.137 152.668 410.654 147.831 410.762 144.761C410.885 144.56 411.008 144.375 411.132 144.198C411.194 142.987 411.255 141.776 411.317 140.564C411.208 139.731 411.062 138.906 410.915 138.073ZM394.185 157.273C394.355 157.173 394.54 157.072 394.671 156.972C395.025 156.782 395.378 156.586 395.732 156.394C395.379 156.588 395.027 156.782 394.675 156.976C394.675 156.978 394.675 156.98 394.675 156.982C394.537 157.081 394.354 157.181 394.185 157.273ZM395.396 168.219C395.172 167.694 394.956 167.17 394.733 166.645C394.733 166.645 394.734 166.645 394.734 166.645C394.955 167.169 395.175 167.692 395.396 168.216C395.396 168.216 395.411 168.203 395.411 168.203C395.364 167.634 395.318 167.064 395.272 166.494C395.175 166.521 395.078 166.548 394.981 166.574C395.079 166.547 395.177 166.52 395.273 166.491C395.319 167.062 395.365 167.632 395.411 168.203L395.396 168.219ZM395.388 162.827C395.286 161.991 395.186 161.157 395.084 160.322C395.186 161.156 395.288 161.99 395.39 162.824L395.412 162.806C395.408 162.81 395.39 162.824 395.39 162.824C395.434 163.391 395.478 163.957 395.522 164.523C395.521 164.524 395.52 164.524 395.519 164.524C395.481 163.961 395.434 163.39 395.388 162.827Z" fill="#C30F08" fill-opacity="0.1"/>
<path fill-rule="evenodd" clip-rule="evenodd" d="M125.312 169.125C128.476 169.125 131.122 169.054 133.763 169.142C137.267 169.259 140.5 169.539 143.721 166.993C147.864 163.718 152.701 161.32 157.252 158.565C157.678 158.306 158.24 157.967 158.661 158.052C163.615 159.057 165.723 155.478 168.767 152.659C170.56 150.999 174.44 150.819 177.238 151.157C189.335 152.619 201.066 152.045 212.279 146.748C213.388 146.224 214.726 146.209 215.925 145.85C218.829 144.983 221.709 144.034 224.61 143.155C226.562 142.564 228.534 142.037 230.968 141.348C230.968 147.073 230.968 151.903 230.968 157.106C227.706 155.438 224.235 153.915 221.635 157.722C219.716 160.531 217.793 163.505 216.742 166.693C215.706 169.833 213.639 170.542 211.117 170.229C206.072 169.603 200.181 172.16 197.394 176.549C196.971 177.216 195.926 178.275 195.687 178.151C192.487 176.496 190.504 179.299 187.956 179.991C185.067 180.777 181.991 181.187 178.993 181.201C172.043 181.235 170.933 181.862 168.685 188.354C167.439 191.949 166.991 191.866 163.816 189.646C162.503 188.727 160.2 188.537 158.558 188.92C155.229 189.698 152.18 191.08 148.588 189.457C147.243 188.85 145.068 189.532 143.465 190.139C137.721 192.316 134.91 191.153 132.188 185.813C130.549 182.598 127.951 179.86 126.416 176.609C125.462 174.588 125.688 172.008 125.312 169.125Z" fill="#C30F08" fill-opacity="0.1"/>
<path fill-rule="evenodd" clip-rule="evenodd" d="M198.72 91.7361C198.716 93.5002 199.258 95.5113 198.595 96.9767C197.246 99.9555 196.674 102.327 199.401 104.944C200.206 105.717 200.111 107.982 199.681 109.324C199.295 110.528 197.972 111.511 196.902 112.4C193.596 115.147 193.088 117.694 195.395 121.37C197.166 124.19 199.055 126.936 200.887 129.718C202.438 132.074 201.53 133.595 199.144 134.434C195.318 135.778 191.12 136.447 187.699 138.456C183.949 140.657 178.208 141.046 177.72 147.208C177.407 147.332 177.042 147.619 176.712 147.584C171.537 147.041 167.132 147.89 164.541 153.205C164.123 154.062 162.123 154.183 160.833 154.572C159.278 155.039 157.496 155.096 156.167 155.911C150.643 159.296 145.347 163.063 139.748 166.312C138.304 167.151 136.062 166.729 134.191 166.687C131.545 166.628 128.906 166.357 126.261 166.224C122.832 166.053 121.511 167.688 122.25 171.049C122.797 173.535 122.844 176.239 123.899 178.476C125.088 180.998 127.41 182.966 128.759 185.438C129.786 187.319 131.131 190.968 130.483 191.477C127.966 193.458 124.709 194.498 121.728 195.889C121.501 195.534 121.275 195.179 121.048 194.824C120.682 195.602 120.282 196.366 119.954 197.16C117.071 204.129 110.413 205.848 104.024 201.482C102.935 200.738 100.979 200.473 99.7264 200.892C93.5784 202.95 87.567 205.413 81.4387 207.534C77.4068 208.93 73.2816 210.08 69.1431 211.122C68.3342 211.326 67.0272 210.773 66.383 210.133C65.3217 209.079 64.6137 207.669 63.5397 206.09C61.0774 207.014 58.4874 207.986 55.9289 208.946C54.8528 206.959 54.1237 204.844 52.7736 203.259C48.3615 198.078 44.7854 195.13 37.7843 198.741C34.4099 200.481 29.884 201.009 25.1487 199.72C20.3876 198.425 15.2844 198.201 10.4879 196.339C7.57612 195.209 5.2619 192.695 1.41853 193.203C-0.232147 193.422 -1.87081 190.756 -0.584507 187.752C0.741013 184.656 1.0813 181.121 1.66918 177.746C1.76078 177.22 1.01228 176.286 0.419437 175.944C-4.85047 172.906 -7.30289 167.493 -10.7912 162.945C-11.5516 161.953 -12.7946 161.272 -13.9204 160.633C-15.9682 159.472 -18.0019 158.164 -20.2129 157.443C-22.7429 156.618 -25.4831 156.462 -28.088 155.834C-30.2561 155.311 -32.333 154.407 -34.5034 153.898C-35.8279 153.587 -37.2636 153.789 -38.6295 153.609C-40.1993 153.403 -41.747 153.029 -43.3044 152.728C-42.8525 151.688 -42.1813 150.685 -41.9966 149.599C-41.66 147.62 -41.5511 145.595 -41.4692 143.584C-41.4284 142.584 -42.1291 141.237 -41.6896 140.619C-38.4698 136.097 -40.6898 132.664 -43.5797 129.208C-44.9151 127.611 -44.3295 126.61 -42.4572 125.715C-40.8156 124.931 -39.4378 123.574 -37.9873 122.415C-35.9081 120.753 -33.8688 119.042 -31.1306 116.791C-30.0933 120.413 -29.6018 122.983 -28.5917 125.33C-28.0019 126.701 -26.6951 128.524 -25.5094 128.689C-23.9321 128.907 -22.0127 127.956 -20.4987 127.067C-17.2154 125.14 -15.2513 121.382 -10.9342 120.709C-9.00653 120.409 -7.9822 118.699 -8.86382 116.224C-9.34133 114.883 -8.68587 113.139 -8.54149 111.577C-7.15007 111.963 -5.28553 111.909 -4.44654 112.81C-0.100872 117.477 3.7168 115.412 7.74609 112.42C8.95448 111.523 10.5862 111.195 12.024 110.607C11.9087 111.06 11.7933 111.513 11.678 111.966C13.2796 113.397 14.6745 115.61 16.5251 116.099C20.5141 117.154 23.2808 114.484 25.481 111.475C26.3735 110.254 26.8518 108.74 27.6145 107.414C29.7367 103.725 32.4958 103.692 34.973 107.236C35.9888 108.689 37.0256 110.157 38.2491 111.429C40.3425 113.606 42.63 113.908 44.9744 111.676C47.8663 108.923 51.0731 107.25 55.323 107.917C56.4146 108.089 58.1978 107.177 58.8592 106.212C62.3543 101.148 67.036 99.5506 73.0605 100.02C76.37 100.278 79.7799 99.1951 83.1511 98.7685C83.7562 98.6919 84.5923 98.635 84.9824 98.9674C87.0273 100.71 88.354 99.1401 90.0865 98.2984C91.6672 97.5304 93.8551 96.8935 95.4091 97.3771C103.555 99.9107 105.008 99.0672 105.028 90.9553C107.824 90.2563 110.636 88.9899 113.446 88.9965C116.773 89.0042 118.028 87.6477 118.534 84.7217C119.028 81.8662 119.789 80.0311 123.767 80.4778C125.768 80.7024 128.469 77.9342 130.244 75.9689C131.889 74.1472 132.723 71.5926 133.914 69.3605C134.409 69.2336 134.903 69.1069 135.397 68.9814C138.226 70.4579 141.055 71.933 143.884 73.4082L143.872 73.3946C145.26 75.4091 146.648 77.4239 148.036 79.4388C147.66 80.9314 147.283 82.4241 146.907 83.9174C143.572 86.543 144.08 89.2292 148.664 93.2099C148.96 93.4949 149.257 93.7799 149.552 94.0649C152.251 95.3128 154.861 96.834 157.669 97.7444C161.946 99.131 165.86 98.7735 168.659 94.441C169.106 93.7497 170.982 93.9822 172.197 93.7877C172.17 93.962 172.224 94.1058 172.36 94.2186C173.872 96.1085 175.278 98.3424 178.095 95.9795C178.095 95.9795 178.16 95.9191 178.158 95.9177C179.201 94.0072 180.246 92.0981 181.291 90.1889C181.367 89.4323 181.444 88.6756 181.52 87.9191C182.898 88.1407 184.275 88.3623 185.653 88.5838C186.282 88.9908 186.912 89.3978 187.543 89.8032C188.716 90.404 189.886 91.0063 191.057 91.6086C192.05 91.6182 193.043 91.6278 194.036 91.6378C195.102 91.6072 196.169 91.5761 197.236 91.5451C197.73 91.6088 198.225 91.6725 198.72 91.7361Z" fill="#C30F08" fill-opacity="0.1"/>
<path fill-rule="evenodd" clip-rule="evenodd" d="M133.358 60.9287C133.021 60.4401 132.683 59.9514 132.346 59.4628C132.132 58.9335 131.918 58.4041 131.704 57.8747C131.651 57.2377 131.832 56.4119 131.505 55.9936C128.933 52.7378 125.452 51.0162 121.36 51.0327C117.397 51.0487 113.692 50.9872 111.337 47.0283C110.952 46.3812 109.812 46.2156 109.083 45.7349C106.112 43.7769 105.17 44.9209 105.478 48.0447C103.885 48.1759 102.291 48.3061 100.697 48.4363C98.9019 49.9965 97.1066 51.5567 95.3112 53.1165C94.7952 52.9391 94.2792 52.762 93.7632 52.5849C92.9164 51.4658 92.0695 50.3466 91.2225 49.2275C90.8018 49.4357 90.3811 49.644 89.9604 49.8522C89.7484 51.5525 89.5365 53.2529 89.3238 54.9525C89.3247 54.9531 89.3062 54.9895 89.3062 54.9895C87.4773 54.8874 85.6484 54.7853 83.8193 54.6834C83.3218 54.6117 82.8241 54.5402 82.3262 54.4688C81.8727 53.5724 81.6334 52.3752 80.909 51.8598C80.1014 51.2855 78.8529 51.3312 77.7965 51.1071C77.6554 52.0629 77.5144 53.0186 77.3739 53.9747C77.3526 54.4884 77.332 55.0025 77.3112 55.5165C76.8875 56.0377 76.4638 56.5589 76.0399 57.0799C76.0399 57.0798 76.0252 57.096 76.0252 57.096C74.5624 57.5944 72.4917 57.6538 71.7539 58.6757C69.7755 61.4161 68.3674 64.5686 66.7329 67.5583C66.0154 67.5378 65.2981 67.5181 64.5808 67.4984C63.0253 67.0786 61.4701 66.659 59.9148 66.2389C59.1606 66.1293 58.4064 66.0201 57.6522 65.9109C57.172 64.6616 56.3284 63.4236 56.2896 62.1608C56.2148 59.7277 51.8292 55.1443 49.5449 55.7461C48.7766 55.9485 48.2992 57.2551 47.6882 58.057C47.6882 58.0569 47.6882 58.057 47.6882 58.057C47.6879 58.0574 47.6874 58.0578 47.6872 58.0582C46.3246 59.1595 44.9619 60.2615 43.5995 61.364C43.1395 61.3235 42.6794 61.2843 42.2194 61.2449C41.1855 60.6368 40.1516 60.0286 39.118 59.4204C39.019 59.0221 38.9198 58.6239 38.8205 58.2257C38.1969 57.3261 37.5734 56.4266 36.9507 55.5268C36.6372 55.2361 36.3231 54.9456 36.0089 54.6551C33.9503 51.4893 32.5632 51.6888 30.5198 55.4451C30.3952 55.6069 30.2321 55.7054 30.0304 55.74C28.2357 55.4948 26.7807 55.7191 26.8411 58.0399C25.9707 57.9885 25.0907 58.0011 24.2313 57.8749C19.5154 57.1822 19.0345 57.6079 19.0515 62.5914C16.8601 63.2137 14.6698 63.8358 13.1646 64.2633C11.7701 62.8524 10.8269 61.898 9.88309 60.9437C9.72264 60.813 9.62775 60.645 9.59894 60.4397C9.47672 57.7833 8.0022 57.1775 5.52928 57.2853C3.71111 57.3646 1.71553 57.0158 0.0583801 56.2763C-2.31999 55.215 -4.37379 55.2179 -5.33662 57.6828C-6.32468 60.2126 -6.60132 63.0204 -7.18944 65.7062C-7.30472 65.8427 -7.451 65.9011 -7.62842 65.8817C-9.2724 65.781 -10.9162 65.6803 -12.5603 65.5798C-12.8138 65.2673 -13.0674 64.955 -13.3209 64.6427C-14.6079 63.6684 -15.8948 62.6942 -17.1816 61.7199C-17.4366 61.5824 -17.6917 61.445 -17.9467 61.3077C-18.8127 61.025 -19.6788 60.7423 -20.546 60.4616C-20.5473 60.4636 -20.5844 60.4133 -20.5844 60.4133C-21.325 59.6259 -22.0658 58.8386 -22.8074 58.0521C-22.8083 58.053 -22.7784 58.0433 -22.7784 58.0433C-23.0422 57.779 -23.3059 57.5148 -23.5705 57.251C-23.5712 57.2516 -23.575 57.2811 -23.575 57.281C-24.097 56.7249 -24.5205 55.8722 -25.1572 55.6606C-29.3186 54.2773 -33.6208 53.2715 -37.6872 51.663C-40.6383 50.4957 -42.0301 51.2065 -42.6395 54.1238C-45.9685 56.0206 -48.85 55.3005 -51.945 53.1803C-54.7733 51.2429 -57.0775 52.4433 -58.0176 55.7141C-58.0149 55.7124 -58.0125 55.7113 -58.0098 55.7096C-58.9994 56.5321 -60.0728 57.2755 -60.9492 58.2048C-61.5417 58.833 -61.906 60.4174 -62.2874 60.3899C-66.6826 60.0736 -67.5487 65.3958 -71.3341 65.9127C-72.3682 65.9586 -73.4024 66.0058 -74.4364 66.0529C-76.0729 66.5177 -77.7093 66.9824 -79.3441 67.4454C-79.5279 67.4717 -79.6732 67.4096 -79.7813 67.2608C-80.1877 66.7529 -80.5939 66.245 -81.0003 65.7371C-81.3609 66.1766 -81.7214 66.616 -82.0817 67.0561C-82.4546 67.1904 -82.8273 67.3251 -83.2 67.46C-83.9853 67.4747 -84.7705 67.4895 -85.5575 67.5064C-86.4706 66.9294 -87.3823 66.3502 -88.2939 65.771C-89.5476 64.2488 -90.6951 62.6137 -92.1196 61.2729C-92.552 60.8659 -93.7789 61.1676 -94.5724 61.3923C-94.7346 61.4383 -94.5834 62.5917 -94.5762 63.2348C-94.6474 63.762 -94.7184 64.2893 -94.7892 64.8166C-95.9725 66.7904 -97.1565 68.7642 -98.3402 70.738C-100.844 69.076 -103.349 67.414 -106.273 65.4732C-109.519 69.194 -116.321 66.1177 -120.046 70.9048C-120.148 71.0357 -120.544 70.9756 -120.796 70.9465C-130.602 69.8145 -138.923 74.0513 -147.159 78.405C-148.314 79.0159 -149.144 80.5622 -149.737 81.8533C-151.061 84.7337 -152.135 87.7288 -153.322 90.6725C-154.012 92.3836 -154.993 94.0273 -155.378 95.8023C-156.748 102.114 -152.601 108.619 -155.997 114.963C-156.406 115.727 -155.489 117.141 -155.344 118.274C-155.002 120.945 -154.904 123.656 -154.415 126.298C-154.09 128.057 -153.686 130.757 -152.571 131.214C-150.322 132.135 -147.96 135.32 -145.039 132.263C-142.465 129.569 -139.595 129.926 -136.619 131.514C-135.839 131.93 -135.053 132.5 -134.216 132.616C-132.074 132.912 -129.903 132.992 -126.995 133.217C-125.352 129.918 -123.253 133.024 -120.947 134.6C-118.717 130.935 -116.084 132.41 -113.385 133.787C-109.896 135.567 -108.605 135.108 -107.711 131.323C-107.203 129.177 -106.409 128.242 -104.142 128.322C-102.686 128.374 -101.21 127.848 -100.085 127.643C-97.8937 129.578 -95.9256 131.316 -93.4574 133.495C-91.5976 130.844 -89.8793 128.825 -88.6479 126.542C-86.7205 122.969 -85.943 122.645 -82.8818 125.575C-81.2041 127.181 -79.9497 127.474 -77.8976 126.12C-76.9099 125.468 -74.9799 125.605 -73.7457 126.082C-69.4994 127.723 -65.046 127.813 -63.6061 125.355C-61.44 121.656 -59.5806 122.98 -57.2733 124.982C-54.0202 127.805 -52.7689 127.499 -50.1487 124.056C-49.4845 123.184 -47.5381 122.138 -47.0494 122.466C-43.6347 124.758 -41.8475 122.467 -40.1618 120.238C-36.6023 115.53 -31.7075 113.957 -26.6735 115.7C-26.0724 119.295 -25.5241 122.573 -24.8257 126.749C-21.3397 123.663 -18.9122 120.736 -15.8138 119.019C-13.3659 117.662 -12.3338 116.733 -12.4939 113.754C-12.7076 109.779 -9.15955 107.67 -5.34695 108.993C-4.27319 109.365 -3.08028 109.778 -2.29892 110.539C0.0806122 112.857 2.0952 112.371 4.75606 110.736C7.26022 109.197 10.2749 108.302 13.1836 107.669C15.3681 107.193 16.9245 108.18 16.2592 111C15.67 113.499 17.3642 113.904 18.8715 112.79C20.825 111.345 22.7639 109.542 23.9522 107.461C28.4868 99.5584 32.5798 99.1331 37.8544 106.444C37.9294 106.548 38.016 106.644 38.0913 106.748C40.7822 110.464 41.6531 110.364 45.5166 107.697C47.7 106.191 50.501 104.702 52.9892 104.758C55.544 104.815 56.9682 104.283 58.4972 102.433C60.9729 99.4356 63.7956 97.1445 68.1187 96.8511C75.7929 96.3303 83.7493 97.7035 91.0242 93.8681C91.7074 93.508 92.794 93.7084 93.6371 93.8981C95.5112 94.3198 97.3593 94.8677 99.2002 95.4234C101.42 96.0935 102.442 95.3813 102.144 93.0141C101.552 88.3094 101.867 87.9298 106.595 87.3138C108.244 87.0988 109.882 86.5042 111.517 86.5303C114.136 86.5721 115.317 85.7941 115.764 82.939C116.481 78.3609 118.157 77.3943 122.828 77.2047C124.01 77.1568 125.641 76.8095 126.251 75.992C128.931 72.396 131.313 68.5775 133.803 64.8396C133.655 63.5357 133.507 62.2323 133.358 60.9287Z" fill="#C30F08" fill-opacity="0.1"/>
<path fill-rule="evenodd" clip-rule="evenodd" d="M127.53 -2.22404C128.575 3.18149 127.958 4.43672 122.562 7.03891C121.837 4.68055 121.436 2.30838 120.39 0.266363C119.235 -1.99008 117.859 -4.44052 115.903 -5.89902C113.663 -7.56878 110.616 -8.11544 108.051 -9.41002C107.085 -9.89754 105.962 -11.0502 105.846 -12.0121C105.68 -13.3964 106.168 -14.9884 106.829 -16.2552C107.001 -16.5839 108.872 -16.101 109.937 -15.8709C112.004 -15.4243 114.042 -14.8414 116.112 -14.4076C119.911 -13.6112 123.815 -13.174 127.507 -12.041C131.09 -10.9417 134.251 -10.6577 136.959 -13.5097C137.354 -13.4466 137.655 -13.4877 137.828 -13.3576C141.247 -10.7792 141.229 -10.7915 137.66 -7.38996C137.121 -6.87639 136.769 -6.14967 136.391 -5.48708C134.945 -2.95183 133.234 -1.14619 129.937 -2.53859C129.358 -2.78271 128.503 -2.37025 127.53 -2.22404Z" fill="#C30F08" fill-opacity="0.1"/>
<path fill-rule="evenodd" clip-rule="evenodd" d="M81.8231 348.542C81.0883 344.742 80.5629 340.901 79.8581 336.551C80.1343 336.648 79.6786 336.43 79.1982 336.327C74.2817 335.275 73.3074 333.096 75.6886 328.833C76.246 327.835 76.3159 326.55 76.5388 325.384C76.791 324.064 76.9337 322.724 77.1774 321.403C77.4282 320.044 77.7433 318.698 78.0303 317.346C76.8025 318.191 75.4461 318.905 74.3993 319.934C73.8516 320.472 73.739 321.549 73.6166 322.409C72.9358 327.191 72.8424 332.13 68.1772 335.341C67.2004 336.014 66.6763 337.791 66.5249 339.126C66.1712 342.244 65.5008 344.711 61.5333 344.252C61.0591 344.197 60.209 344.722 60.0343 345.172C58.7592 348.459 57.1474 351.712 56.5255 355.136C55.357 361.565 54.0606 367.852 50.325 373.382C49.0818 375.223 46.8062 377.401 47.1062 379.041C47.7843 382.746 47.1301 385.485 44.6478 388.155C43.9717 388.883 44.0024 390.269 43.7149 391.355C43.4279 392.438 43.3938 393.678 42.8221 394.578C40.805 397.75 38.6613 400.847 36.4627 403.898C30.2674 412.495 23.8725 420.954 17.8978 429.701C16.3717 431.935 15.8891 434.996 15.4078 437.761C15.2615 438.602 17.032 439.633 17.3572 440.743C17.6289 441.671 17.4455 443.229 16.816 443.836C14.5159 446.051 11.5315 447.655 9.5736 450.103C6.70168 453.7 3.06833 454.676 -1.1661 455.213C-5.99407 455.825 -9.0391 458.664 -10.6377 463.479C-11.5186 466.133 -13.6969 468.337 -15.1468 470.827C-16.0389 472.358 -17.291 474.059 -17.263 475.664C-17.2153 478.411 -16.4639 481.193 -15.6931 483.87C-14.517 487.955 -13.6814 492.321 -11.574 495.905C-9.38124 499.634 -7.49735 503.236 -7.11889 507.551C-6.20083 507.528 -5.28282 507.506 -4.36476 507.483C-0.964014 507.071 2.43656 506.658 5.83748 506.245C6.38626 506.417 6.93515 506.588 7.48411 506.759C8.13454 507.843 8.78497 508.928 9.43464 510.013C9.48547 511.544 9.53745 513.075 9.58943 514.607C10.2866 515.361 10.9103 516.663 11.6944 516.768C14.0297 517.081 16.4281 516.924 18.8027 516.951C19.6217 518.008 20.4414 519.064 21.2611 520.121C21.7788 520.378 22.2965 520.634 22.8139 520.891C23.8303 520.966 24.8466 521.041 25.8631 521.116C30.2512 522.56 34.6389 524.004 39.027 525.447C41.1111 525.494 43.1951 525.54 45.2794 525.586C46.6245 525.347 48.8108 525.518 49.1628 524.795C50.4017 522.252 51.0105 519.402 51.8606 516.669C51.8583 516.668 51.9462 516.574 51.9462 516.574C53.3042 516.172 54.6698 515.771 56.0315 515.369C56.1339 515.127 56.2364 514.884 56.3389 514.641C57.8416 513.074 60.111 511.737 58.0007 509.088C58.01 508.631 58.0177 508.175 58.0256 507.719C59.621 507.427 61.2495 507.253 62.8033 506.813C64.6964 506.278 66.5266 505.52 68.8372 504.696C66.0257 500.872 66.5984 497.911 68.2972 494.774C69.1333 493.23 69.2024 491.271 69.6199 489.501C70.5121 488.612 71.4056 487.725 72.2994 486.837C72.6775 486.6 73.0557 486.363 73.4338 486.125C73.1328 485.813 72.8317 485.5 72.5297 485.188C72.4304 484.944 72.3303 484.699 72.2301 484.455C71.9193 482.847 71.6086 481.238 71.2987 479.631C71.3117 479.42 71.4011 479.249 71.5665 479.119C70.3124 474.46 69.0585 469.801 67.8051 465.142C67.851 463.382 67.8966 461.622 67.942 459.862C68.1308 459.296 68.6133 458.337 68.4636 458.226C66.9729 457.114 65.3781 456.142 63.8121 455.13C62.5282 455.007 61.2437 454.885 59.9592 454.762C59.1479 452.851 57.8964 452.276 56.0594 453.476C55.5577 453.395 55.0558 453.314 54.554 453.234C53.9335 452.901 53.3132 452.569 52.6918 452.237C52.4914 452.196 52.3304 452.094 52.2076 451.931C51.5489 451.182 50.89 450.433 50.2324 449.684C50.2113 448.193 50.1891 446.702 50.1671 445.211C51.9589 443.903 51.9005 442.569 50.223 441.211C50.1149 440.46 50.0057 439.709 49.8965 438.958C49.7234 438.1 49.5556 437.24 49.3764 436.383C48.8658 433.942 48.5711 431.6 51.806 430.623C52.7046 431.737 53.3603 432.886 54.3204 433.656C55.6216 434.7 56.7558 434.685 56.5934 432.498C56.5277 432.318 56.5445 432.148 56.643 431.986C56.8804 431.681 57.1179 431.375 57.3541 431.069C57.3527 431.067 57.3714 431.014 57.3714 431.014C58.763 431.086 60.1546 431.215 61.5463 431.218C68.4107 431.234 68.5888 430.947 65.7686 424.815C65.6951 424.655 65.9008 424.367 65.8259 424.594C67.1486 423.587 68.1531 422.823 69.1575 422.058C69.4445 421.28 69.7316 420.501 70.0181 419.722C70.9449 418.627 71.8719 417.531 73.1266 416.048C68.3623 412.026 70.4605 406.601 71.0433 401.729C71.506 397.862 73.6465 394.187 75.1133 390.454C75.6114 389.186 76.573 388.066 76.8976 386.771C77.9364 382.627 78.8095 378.44 79.663 374.252C79.8257 373.453 79.5632 372.577 79.5732 371.737C79.5973 369.728 79.0263 367.402 79.8347 365.768C82.5954 360.184 82.978 354.513 81.8231 348.542Z" fill="#C30F08" fill-opacity="0.1"/>
<path fill-rule="evenodd" clip-rule="evenodd" d="M13.6712 442.855C9.99093 448.07 3.97531 449.049 -2.30963 448.344C-4.34299 448.116 -6.65645 446.353 -7.98982 444.632C-13.0139 438.147 -10.93 431.37 -7.88991 424.859C-5.71384 420.199 -4.04497 415.287 0.884643 412.222C3.66187 410.496 2.19058 401.961 -0.644576 399.942C-4.66866 397.076 -5.19943 394.524 -2.15577 390.874C1.92867 385.976 6.72042 381.583 10.2287 376.32C12.4935 372.923 13.6494 368.426 14.1074 364.29C14.522 360.544 14.9422 357.241 17.9215 354.693C18.4031 354.281 19.1359 353.719 19.1235 353.242C19.0104 348.874 22.3569 348.45 25.3567 347.592C28.8862 346.582 29.57 343.548 30.6112 340.596C31.074 339.284 32.308 337.988 33.5318 337.244C39.8807 333.381 45.7734 335.453 51.5997 338.811C54.9881 340.764 60.0631 339.428 64.1016 335.659C64.0434 338.47 64.3434 340.745 60.6609 341.469C59.1573 341.764 57.4109 343.869 56.8762 345.51C54.8434 351.747 53.6185 358.262 51.3754 364.412C50.0214 368.124 47.2634 371.308 45.3119 374.827C44.6491 376.022 44.0287 377.605 44.2551 378.854C44.7375 381.515 45.1782 383.94 42.6547 385.821C42.5534 385.897 42.3934 386.02 42.4042 386.101C43.1088 391.427 37.9068 394.052 36.6821 398.573C36.082 400.788 34.4164 402.772 33.0166 404.704C27.9919 411.638 23.1985 418.78 17.6615 425.285C14.7244 428.735 12.1029 431.784 12.778 436.559C13.0387 438.403 13.3011 440.247 13.6712 442.855Z" fill="#C30F08" fill-opacity="0.1"/>
<path fill-rule="evenodd" clip-rule="evenodd" d="M81.5609 315.528C79.2793 314.69 77.0274 313.271 76.4724 313.763C74.253 315.733 71.4226 318.095 70.9616 320.692C70.3845 323.945 69.7019 326.072 66.8107 327.983C64.33 329.623 62.5363 332.369 60.6099 334.763C58.363 337.555 55.5713 338.243 52.9238 336.052C48.7088 332.564 43.677 332.6 38.7941 332.04C33.8681 331.476 28.3042 335.96 27.3796 340.875C26.7868 344.027 24.8007 345.633 21.7439 345.557C18.9424 345.487 17.5835 346.887 16.5545 349.211C15.5023 351.588 14.0738 353.801 13.0704 356.195C12.2577 358.134 11.4354 360.211 11.3111 362.268C10.9977 367.455 9.02575 371.616 6.38424 376.203C1.12889 385.329 -6.64028 384.102 -14.5072 383.415C-20.3486 382.905 -26.1005 381.423 -31.9371 380.783C-35.0939 380.437 -36.4295 378.627 -36.4087 376.077C-36.3831 372.952 -33.5364 373.478 -31.4399 373.239C-24.2203 372.419 -17.059 371.32 -13.6086 363.67C-12.4296 361.056 -11.786 358.159 -11.2088 355.327C-10.569 352.189 -11.9059 349.949 -14.8149 348.431C-16.3494 347.63 -17.5818 346.25 -19.2423 344.893C-17.3959 342.169 -15.6808 339.692 -14.0303 337.173C-13.4839 336.339 -12.8615 335.441 -12.6854 334.495C-10.8978 324.899 -7.28078 316.305 0.296822 309.736C1.43781 308.747 2.44337 307.486 3.18147 306.167C7.22092 298.944 15.6205 298.734 21.5526 294.589C25.7938 291.625 29.9841 288.58 34.0774 285.417C37.2995 282.927 40.2754 280.118 43.5017 277.633C44.356 276.975 45.7309 276.994 47.3164 276.587C47.0634 278.543 46.6769 279.895 46.7864 281.207C46.8723 282.235 47.3222 283.684 48.0691 284.079C48.8291 284.481 50.6878 284.203 51.1368 283.567C53.7436 279.874 59.1057 279.061 60.4424 273.829C61.1458 271.075 64.3276 270.14 67.3873 269.908C71.5035 269.597 75.5912 268.909 80.519 268.277C80.4322 268.134 81.1339 268.893 81.3899 269.782C82.4636 273.507 84.8081 274.926 88.4854 276.621C93.3212 278.849 97.4297 283.464 100.765 287.874C103.242 291.149 99.9303 294.376 97.6041 296.852C93.6845 301.025 89.3465 304.809 85.4865 309.032C83.7615 310.919 82.7682 313.476 81.5609 315.528Z" fill="#C30F08" fill-opacity="0.1"/>
<path fill-rule="evenodd" clip-rule="evenodd" d="M-3.16001 386.456C-3.79155 387.902 -4.07114 388.738 -4.49887 389.49C-8.01264 395.665 -7.89984 396.445 -2.6531 401.389C0.621052 404.474 0.850971 408.968 -2.70045 411.676C-8.89247 416.398 -11.1067 423.489 -12.4917 430.211C-13.7314 436.229 -17.5951 439.332 -21.1128 443.205C-22.7112 444.964 -24.2906 446.744 -25.9575 448.437C-27.302 449.803 -28.2477 451.726 -30.9651 450.638C-33.6854 449.548 -34.1703 447.779 -33.1515 445.545C-31.7989 442.578 -30.2439 439.667 -28.4519 436.945C-26.0618 433.315 -23.2273 429.976 -20.8648 426.33C-20.0366 425.052 -19.6987 423.228 -19.7295 421.665C-19.8128 417.451 -19.0553 413.661 -16.6691 410.016C-15.5026 408.235 -15.3917 405.667 -15.1193 403.416C-14.6461 399.507 -14.7313 395.508 -13.9824 391.663C-13.4445 388.901 -11.6754 386.591 -8.33988 386.466C-6.82469 386.409 -5.30552 386.456 -3.16001 386.456Z" fill="#C30F08" fill-opacity="0.1"/>
<path fill-rule="evenodd" clip-rule="evenodd" d="M41.5051 258.442C43.3811 261.399 44.8049 263.351 45.9071 265.471C46.8466 267.277 47.5481 269.242 48.0557 271.214C48.182 271.704 47.2821 272.703 46.6299 273.106C44.2174 274.594 41.4948 275.656 39.2915 277.39C36.1168 279.888 33.6219 283.355 30.2511 285.479C23.5902 289.675 16.4668 293.128 9.6624 297.107C7.09205 298.61 4.66556 300.505 2.5443 302.598C-0.973396 306.068 -4.81677 309.453 -7.3828 313.582C-10.8968 319.238 -13.8088 325.282 -15.1551 332.064C-15.8081 335.354 -18.2413 338.406 -20.2812 341.272C-22.528 344.429 -22.0204 347.017 -18.9518 348.696C-14.158 351.319 -13.7809 355.206 -15.1002 359.696C-16.5313 364.567 -19.4729 368.029 -24.7545 369.032C-27.8947 369.629 -30.9906 370.585 -34.1528 370.878C-35.4325 370.997 -37.4686 370.142 -38.0658 369.102C-39.9547 365.811 -41.2072 362.161 -42.9612 358.783C-43.5977 357.556 -44.8754 356.607 -45.9964 355.698C-50.2425 352.259 -54.7007 349.061 -58.7299 345.388C-59.9337 344.291 -60.0416 341.955 -60.5713 340.163C-61.4315 337.252 -62.0422 334.253 -63.0988 331.419C-64.1621 328.566 -65.8651 325.946 -66.8684 323.078C-67.7035 320.69 -67.9063 318.22 -64.2952 317.494C-63.4333 317.32 -62.7138 316.021 -62.0982 315.124C-60.5693 312.895 -59.633 309.851 -57.5661 308.484C-53.0968 305.528 -50.0965 301.723 -47.6925 297.062C-46.13 294.033 -43.6266 291.503 -41.8718 288.555C-40.2028 285.75 -38.7001 282.787 -37.5853 279.726C-35.6929 274.53 -32.8929 273.234 -28.5124 275.936C-25.8341 277.587 -23.1711 279.269 -20.4337 280.818C-18.1287 282.123 -15.9433 281.955 -14.398 279.567C-10.2985 273.231 -6.44146 266.729 -2.13564 260.539C1.29311 255.609 5.1731 250.984 9.03432 246.376C9.58686 245.716 11.8143 245.38 12.1603 245.802C14.5651 248.734 16.8212 247.749 19.1655 245.929C22.2409 243.54 25.2919 243.638 28.2392 246.078C28.9556 246.671 29.5768 247.525 29.9266 248.386C30.8851 250.748 39.9899 258.219 41.5051 258.442Z" fill="#C30F08" fill-opacity="0.1"/>
<path fill-rule="evenodd" clip-rule="evenodd" d="M-36.8145 214.702C-35.4519 214.139 -34.3289 213.292 -33.1932 213.274C-28.9006 213.207 -26.8181 210.437 -25.4019 207.042C-24.8386 205.691 -24.6833 203.856 -25.11 202.479C-25.8011 200.249 -25.5237 198.763 -23.4306 197.67C-20.3197 196.046 -18.2753 192.36 -13.7281 193.349C-12.6821 193.577 -11.0424 191.075 -9.438 189.612C-6.76484 191.487 -3.91611 193.479 -1.07598 195.483C-0.659519 195.777 -0.332859 196.288 0.119068 196.428C3.79987 197.56 7.49897 198.634 11.198 199.706C11.5613 199.811 12.0919 199.639 12.3267 199.845C16.6279 203.611 22.1759 202.408 27.104 203.165C30.8897 203.747 35.2232 202.837 38.9116 201.491C44.4137 199.482 46.7213 199.714 50.136 204.646C50.8614 205.693 51.4873 206.824 52.0446 207.972C54.1269 212.262 54.855 212.752 59.1994 210.747C61.5982 209.64 62.9639 209.878 64.0862 212.151C65.46 214.933 67.1397 215.371 70.2264 214.102C76.2686 211.616 82.6143 209.875 88.8052 207.741C91.0469 206.969 93.1393 205.701 95.4166 205.107C98.8866 204.203 102.23 203.369 105.869 205.709C107.823 206.965 110.979 206.35 114.596 206.666C110.167 209.398 106.1 210.228 101.811 210.697C94.3334 211.514 86.8053 212.212 79.467 213.759C76.9566 214.288 74.2184 216.788 72.8534 219.128C68.732 226.194 65.0956 233.557 61.59 240.956C60.7168 242.799 60.9312 245.21 60.8546 247.368C60.7055 251.573 58.6639 252.862 55.2525 254.903C50.6039 257.685 46.4202 255.656 42.0414 255.385C41.1532 255.33 40.226 254.576 39.4715 253.956C37.6498 252.459 35.8931 250.879 34.1672 249.271C33.577 248.722 32.9329 248.063 32.6936 247.33C30.5169 240.659 24.7933 239.133 19.5376 242.258C17.2458 243.621 15.4518 245.341 13.0787 242.633C12.804 242.319 12.0478 242.152 11.6297 242.283C7.27945 243.648 5.22235 240.322 2.4859 238.103C-0.0265312 236.065 -2.99308 234.598 -5.62021 232.689C-7.76607 231.129 -9.60826 229.149 -11.7631 227.604C-14.3229 225.768 -17.048 224.156 -19.7483 222.525C-22.2491 221.014 -24.7243 219.414 -27.3706 218.203C-30.2203 216.898 -33.2557 215.998 -36.8145 214.702Z" fill="#C30F08" fill-opacity="0.1"/>
<path fill-rule="evenodd" clip-rule="evenodd" d="M-8.67085 234.673C-9.12618 234.638 -9.46347 233.72 -9.9497 233.329C-13.2145 230.709 -16.3668 227.916 -19.8275 225.582C-22.9665 223.464 -26.3068 221.471 -29.8334 220.166C-32.1088 219.324 -36.8655 219.138 -37.1042 219.831C-38.5803 224.118 -41.7551 226.24 -45.2956 228.283C-45.8242 228.588 -45.8986 229.646 -46.23 230.333C-47.378 232.714 -48.4402 234.476 -51.9583 234.084C-53.8729 233.871 -57.6641 236.14 -57.8674 237.657C-58.4474 241.986 -58.3725 246.72 -57.1631 250.891C-55.6263 256.192 -52.7219 261.097 -50.4072 266.173C-50.3559 267.217 -50.3047 268.262 -50.2545 269.306C-50.3296 270.071 -50.4058 270.835 -50.4821 271.6C-50.2543 272.119 -50.0262 272.638 -49.7989 273.158C-49.1903 275.832 -48.5809 278.506 -47.9716 281.18C-47.9035 283.067 -48.0131 284.986 -47.6866 286.827C-47.5412 287.648 -46.5174 288.312 -45.8922 289.047C-45.343 288.205 -44.7939 287.363 -44.2448 286.52C-42.9554 284.517 -41.5899 282.556 -40.3957 280.496C-38.9107 277.934 -37.9753 274.903 -36.008 272.828C-34.8397 271.596 -32.0419 271.221 -30.1576 271.537C-28.0028 271.899 -26.0565 273.472 -24.005 274.488C-21.7118 275.625 -18.9431 278.08 -17.2184 277.495C-15.1731 276.801 -14.0201 273.476 -12.4827 271.289C-12.3351 271.079 -12.2147 270.85 -12.0643 270.642C-7.13193 263.829 -2.18642 257.026 2.72893 250.2C3.89233 248.584 4.95496 246.896 6.14758 245.116C0.690434 241.861 -1.76574 235.206 -8.67085 234.673Z" fill="#C30F08" fill-opacity="0.1"/>
<g filter="url(#filter0_d_1_43)">
<rect x="875" y="50" width="40" height="40" rx="10" fill="white"/>
</g>
<path d="M903 78V79H904V78H903ZM898.707 72.2929C898.317 71.9024 897.683 71.9024 897.293 72.2929C896.902 72.6834 896.902 73.3166 897.293 73.7071L898.707 72.2929ZM902 72V78H904V72H902ZM903 77H897V79H903V77ZM903.707 77.2929L898.707 72.2929L897.293 73.7071L902.293 78.7071L903.707 77.2929Z" fill="#909090"/>
<path d="M887 78H886V79H887V78ZM892.707 73.7071C893.098 73.3166 893.098 72.6834 892.707 72.2929C892.317 71.9024 891.683 71.9024 891.293 72.2929L892.707 73.7071ZM886 72V78H888V72H886ZM887 79H893V77H887V79ZM887.707 78.7071L892.707 73.7071L891.293 72.2929L886.293 77.2929L887.707 78.7071Z" fill="#909090"/>
<path d="M903 62H904V61H903V62ZM897.293 66.2929C896.902 66.6834 896.902 67.3166 897.293 67.7071C897.683 68.0976 898.317 68.0976 898.707 67.7071L897.293 66.2929ZM904 68V62H902V68H904ZM903 61H897V63H903V61ZM902.293 61.2929L897.293 66.2929L898.707 67.7071L903.707 62.7071L902.293 61.2929Z" fill="#909090"/>
<path d="M887 62V61H886V62H887ZM891.293 67.7071C891.683 68.0976 892.317 68.0976 892.707 67.7071C893.098 67.3166 893.098 66.6834 892.707 66.2929L891.293 67.7071ZM888 68V62H886V68H888ZM887 63H893V61H887V63ZM886.293 62.7071L891.293 67.7071L892.707 66.2929L887.707 61.2929L886.293 62.7071Z" fill="#909090"/>
<g filter="url(#filter1_d_1_43)">
<rect x="875" y="495" width="40" height="40" rx="10" fill="white"/>
</g>
<g filter="url(#filter2_d_1_43)">
<rect x="875" y="655" width="40" height="40" rx="10" fill="white"/>
</g>
<g filter="url(#filter3_d_1_43)">
<rect x="875" y="555" width="40" height="80" rx="10" fill="white"/>
</g>
<path fill-rule="evenodd" clip-rule="evenodd" d="M910 596H880V595H910V596Z" fill="#C4C4C4"/>
<path fill-rule="evenodd" clip-rule="evenodd" d="M886 574.5C886 573.672 886.672 573 887.5 573H902.5C903.328 573 904 573.672 904 574.5C904 575.328 903.328 576 902.5 576H887.5C886.672 576 886 575.328 886 574.5Z" fill="#919191"/>
<path fill-rule="evenodd" clip-rule="evenodd" d="M895 565.5C895.828 565.5 896.5 566.172 896.5 567L896.5 582C896.5 582.828 895.828 583.5 895 583.5C894.172 583.5 893.5 582.828 893.5 582L893.5 567C893.5 566.172 894.172 565.5 895 565.5Z" fill="#919191"/>
<path fill-rule="evenodd" clip-rule="evenodd" d="M886 614.5C886 613.672 886.672 613 887.5 613H902.5C903.328 613 904 613.672 904 614.5C904 615.328 903.328 616 902.5 616H887.5C886.672 616 886 615.328 886 614.5Z" fill="#919191"/>
<path d="M895 521.54L902.37 515.8L904 517.07L895 524.07L886 517.07L887.62 515.81L895 521.54ZM895 519L886 512L895 505L904 512L895 519ZM895 507.53L889.26 512L895 516.47L900.74 512L895 507.53Z" fill="#909090"/>
<path fill-rule="evenodd" clip-rule="evenodd" d="M893.825 668.039C895.781 667.91 897.785 668.105 899.541 668.611C901.267 669.11 902.816 669.929 903.777 671.09C904.813 672.34 905.083 673.923 904.291 675.401C903.579 676.73 902.16 677.684 900.56 678.298C899.397 678.744 898.077 679.036 896.706 679.168L897.894 680.356L895.773 682.477L892.106 678.811L891.045 677.75L892.106 676.689L895.773 673.023L897.894 675.144L896.912 676.126C897.856 676.001 898.732 675.786 899.485 675.497C900.766 675.005 901.419 674.409 901.647 673.984C901.795 673.708 901.821 673.43 901.467 673.003C901.038 672.486 900.129 671.904 898.709 671.494C897.319 671.093 895.666 670.924 894.022 671.032C892.371 671.141 890.903 671.517 889.837 672.05C888.73 672.603 888.35 673.168 888.271 673.469C888.224 673.647 888.213 674.013 888.837 674.554C889.463 675.096 889.532 676.043 888.989 676.669C888.447 677.296 887.5 677.364 886.873 676.821C885.682 675.79 884.943 674.326 885.37 672.705C885.765 671.205 887.034 670.097 888.496 669.367C889.998 668.615 891.874 668.167 893.825 668.039Z" fill="#909090"/>
</g>
<rect x="1" y="1" width="943" height="743" rx="29" stroke="#C30F08" stroke-width="2"/>
<defs>
<filter id="filter0_d_1_43" x="866" y="41" width="60" height="60" filterUnits="userSpaceOnUse" color-interpolation-filters="sRGB">
<feFlood flood-opacity="0" result="BackgroundImageFix"/>
<feColorMatrix in="SourceAlpha" type="matrix" values="0 0 0 0 0 0 0 0 0 0 0 0 0 0 0 0 0 0 127 0" result="hardAlpha"/>
<feOffset dx="1" dy="1"/>
<feGaussianBlur stdDeviation="5"/>
<feComposite in2="hardAlpha" operator="out"/>
<feColorMatrix type="matrix" values="0 0 0 0 0 0 0 0 0 0 0 0 0 0 0 0 0 0 0.5 0"/>
<feBlend mode="normal" in2="BackgroundImageFix" result="effect1_dropShadow_1_43"/>
<feBlend mode="normal" in="SourceGraphic" in2="effect1_dropShadow_1_43" result="shape"/>
</filter>
<filter id="filter1_d_1_43" x="866" y="486" width="60" height="60" filterUnits="userSpaceOnUse" color-interpolation-filters="sRGB">
<feFlood flood-opacity="0" result="BackgroundImageFix"/>
<feColorMatrix in="SourceAlpha" type="matrix" values="0 0 0 0 0 0 0 0 0 0 0 0 0 0 0 0 0 0 127 0" result="hardAlpha"/>
<feOffset dx="1" dy="1"/>
<feGaussianBlur stdDeviation="5"/>
<feComposite in2="hardAlpha" operator="out"/>
<feColorMatrix type="matrix" values="0 0 0 0 0 0 0 0 0 0 0 0 0 0 0 0 0 0 0.5 0"/>
<feBlend mode="normal" in2="BackgroundImageFix" result="effect1_dropShadow_1_43"/>
<feBlend mode="normal" in="SourceGraphic" in2="effect1_dropShadow_1_43" result="shape"/>
</filter>
<filter id="filter2_d_1_43" x="866" y="646" width="60" height="60" filterUnits="userSpaceOnUse" color-interpolation-filters="sRGB">
<feFlood flood-opacity="0" result="BackgroundImageFix"/>
<feColorMatrix in="SourceAlpha" type="matrix" values="0 0 0 0 0 0 0 0 0 0 0 0 0 0 0 0 0 0 127 0" result="hardAlpha"/>
<feOffset dx="1" dy="1"/>
<feGaussianBlur stdDeviation="5"/>
<feComposite in2="hardAlpha" operator="out"/>
<feColorMatrix type="matrix" values="0 0 0 0 0 0 0 0 0 0 0 0 0 0 0 0 0 0 0.5 0"/>
<feBlend mode="normal" in2="BackgroundImageFix" result="effect1_dropShadow_1_43"/>
<feBlend mode="normal" in="SourceGraphic" in2="effect1_dropShadow_1_43" result="shape"/>
</filter>
<filter id="filter3_d_1_43" x="866" y="546" width="60" height="100" filterUnits="userSpaceOnUse" color-interpolation-filters="sRGB">
<feFlood flood-opacity="0" result="BackgroundImageFix"/>
<feColorMatrix in="SourceAlpha" type="matrix" values="0 0 0 0 0 0 0 0 0 0 0 0 0 0 0 0 0 0 127 0" result="hardAlpha"/>
<feOffset dx="1" dy="1"/>
<feGaussianBlur stdDeviation="5"/>
<feComposite in2="hardAlpha" operator="out"/>
<feColorMatrix type="matrix" values="0 0 0 0 0 0 0 0 0 0 0 0 0 0 0 0 0 0 0.5 0"/>
<feBlend mode="normal" in2="BackgroundImageFix" result="effect1_dropShadow_1_43"/>
<feBlend mode="normal" in="SourceGraphic" in2="effect1_dropShadow_1_43" result="shape"/>
</filter>
<clipPath id="clip0_1_43">
<rect width="945" height="745" rx="30" fill="white"/>
</clipPath>
</defs>
</svg>
