<svg width="25" height="25" viewBox="0 0 25 25" fill="none" xmlns="http://www.w3.org/2000/svg">
    <g clip-path="url(#clip0_705_1351)">
        <g clip-path="url(#clip1_705_1351)">
            <path d="M0 0H25V25H0V0Z" fill="#012169" />
            <path
                d="M25 0V3.125L15.7227 12.5L25 21.6309V25H21.7285L12.4023 15.8203L3.32031 25H0V21.6797L9.08203 12.5488L0 3.61328V0H3.02734L12.4023 9.17969L21.4844 0H25Z"
                fill="white" />
            <path
                d="M8.98438 15.8203L9.52148 17.4805L2.05078 25H0V24.8535L8.98438 15.8203ZM15.0391 15.2344L17.6758 15.625L25 22.8027V25L15.0391 15.2344ZM25 0L15.625 9.57031L15.4297 7.42188L22.7539 0H25ZM0 0.0488281L9.42383 9.27734L6.54297 8.88672L0 2.39258V0.0488281Z"
                fill="#C8102E" />
            <path d="M8.59375 0V25H16.4062V0H8.59375ZM0 8.59375V16.4062H25V8.59375H0Z" fill="white" />
            <path d="M0 10.1562V14.8438H25V10.1562H0ZM10.1562 0V25H14.8438V0H10.1562Z"
                fill="#C8102E" />
        </g>
    </g>
    <rect x="1" y="1" width="23" height="23" rx="4" stroke="white" stroke-width="2" />
    <defs>
        <clipPath id="clip0_705_1351">
            <rect width="25" height="25" rx="5" fill="white" />
        </clipPath>
        <clipPath id="clip1_705_1351">
            <rect width="25" height="25" fill="white" />
        </clipPath>
    </defs>
</svg>
    