<svg width="25" height="25" viewBox="0 0 25 25" fill="none" xmlns="http://www.w3.org/2000/svg">
<path d="M0 -1.52588e-05H25V25H0V-1.52588e-05Z" fill="#006600"/>
<path d="M0 -1.52588e-05H25V17.8564H0V-1.52588e-05Z" fill="white"/>
<path d="M0 -1.52588e-05H25V7.14354H0V-1.52588e-05Z" fill="#CC0000"/>
<path d="M11.5001 12.1679C11.5488 12.084 11.6235 12.0184 11.7129 11.9808C11.8023 11.9432 11.9015 11.9357 11.9956 11.9595C12.0896 11.9833 12.1733 12.0371 12.234 12.1127C12.2948 12.1883 12.3292 12.2817 12.3322 12.3786V14.1643H12.6679V12.3786C12.6709 12.2817 12.7053 12.1883 12.7661 12.1127C12.8268 12.0371 12.9105 11.9833 13.0045 11.9595C13.0986 11.9357 13.1978 11.9432 13.2872 11.9808C13.3766 12.0184 13.4513 12.084 13.5001 12.1679C13.5526 12.0096 13.5667 11.841 13.5414 11.6761C13.5161 11.5113 13.4519 11.3548 13.3543 11.2195C13.2567 11.0843 13.1283 10.9741 12.9798 10.8982C12.8313 10.8222 12.6669 10.7826 12.5001 10.7826C12.3332 10.7826 12.1688 10.8222 12.0203 10.8982C11.8718 10.9741 11.7434 11.0843 11.6458 11.2195C11.5482 11.3548 11.484 11.5113 11.4587 11.6761C11.4334 11.841 11.4475 12.0096 11.5001 12.1679Z" fill="#F8C300"/>
<path d="M11.7393 11.7C11.8861 11.6702 12.0385 11.6873 12.175 11.7488C12.3115 11.8103 12.4252 11.9132 12.5001 12.0429C12.5749 11.9132 12.6886 11.8103 12.8251 11.7488C12.9616 11.6873 13.114 11.6702 13.2608 11.7C13.2355 11.5162 13.1446 11.3477 13.0047 11.2258C12.8649 11.1038 12.6856 11.0367 12.5001 11.0367C12.3145 11.0367 12.1352 11.1038 11.9954 11.2258C11.8555 11.3477 11.7646 11.5162 11.7393 11.7Z" fill="white"/>
<path d="M12.3322 13.45C12.3091 13.703 12.2155 13.9445 12.0619 14.1469C11.9084 14.3493 11.7011 14.5045 11.4637 14.595C11.2263 14.6854 10.9683 14.7074 10.719 14.6584C10.4697 14.6094 10.2392 14.4914 10.0536 14.3179C9.97455 14.5174 9.85101 14.6962 9.69241 14.8407C9.53382 14.9852 9.34434 15.0917 9.1384 15.152C8.93246 15.2122 8.71548 15.2247 8.50398 15.1885C8.29248 15.1523 8.09204 15.0683 7.9179 14.9429C8.05004 16.2429 10 15.9786 10.1429 14.7143C10.7572 15.7893 12.1072 15.4822 12.5001 14.1643L12.3322 13.45Z" fill="#F8C300"/>
<path d="M12.6679 13.45C12.691 13.703 12.7846 13.9445 12.9382 14.1469C13.0917 14.3493 13.299 14.5045 13.5364 14.595C13.7738 14.6854 14.0318 14.7074 14.2811 14.6584C14.5304 14.6094 14.7609 14.4914 14.9465 14.3179C15.0256 14.5174 15.1491 14.6962 15.3077 14.8407C15.4663 14.9852 15.6558 15.0917 15.8617 15.152C16.0676 15.2122 16.2846 15.2247 16.4961 15.1885C16.7076 15.1523 16.9081 15.0683 17.0822 14.9429C16.9501 16.2429 15.0001 15.9786 14.8572 14.7143C14.2429 15.7893 12.8929 15.4822 12.5001 14.1643L12.6679 13.45Z" fill="#F8C300"/>
<path d="M11.0286 15.7607C10.7572 16.35 10.2143 16.45 9.73933 15.975C9.73933 15.975 9.92862 15.8393 10.1322 15.8036C10.1198 15.7124 10.127 15.6197 10.1535 15.5316C10.18 15.4435 10.2251 15.3621 10.2858 15.2929C10.4385 15.3919 10.5521 15.5409 10.6072 15.7143C10.8929 15.6786 11.0286 15.7607 11.0286 15.7607Z" fill="#F8C300"/>
<path d="M13.164 15.6944C12.8 16.2314 12.2481 16.2414 11.8571 15.6952C11.8571 15.6952 12.066 15.5922 12.2726 15.5902C12.2753 15.4983 12.2976 15.4079 12.3381 15.3253C12.3786 15.2427 12.4364 15.1698 12.5076 15.1115C12.6421 15.2341 12.7298 15.3996 12.7558 15.5797C13.0436 15.5912 13.164 15.6944 13.164 15.6944Z" fill="#F8C300"/>
<path d="M15.2594 15.9728C14.8134 16.444 14.2671 16.3646 13.9695 15.7624C13.9695 15.7624 14.1923 15.6945 14.3965 15.726C14.414 15.6357 14.4506 15.5501 14.504 15.4752C14.5573 15.4002 14.6261 15.3376 14.7057 15.2915C14.8187 15.4342 14.8785 15.6117 14.8751 15.7937C15.1572 15.8515 15.2594 15.9728 15.2594 15.9728Z" fill="#F8C300"/>
<path fill-rule="evenodd" clip-rule="evenodd" d="M15.8828 17.3453C13.6755 16.6883 11.3246 16.6883 9.11727 17.3453L8.95425 16.7976C11.268 16.1089 13.7321 16.1089 16.0459 16.7976L15.8828 17.3453Z" fill="#F8C300"/>
<path d="M13.3724 8.28798L11.9609 9.31353L12.5 7.65416L13.0392 9.31353L11.6277 8.28798H13.3724Z" fill="#F8C300"/>
<path d="M10.8724 8.95941L9.46088 9.98496L10 8.32559L10.5392 9.98496L9.12766 8.95941H10.8724Z" fill="#F8C300"/>
<path d="M9.04385 10.788L7.6323 11.8135L8.17147 10.1542L8.71063 11.8135L7.29908 10.788H9.04385Z" fill="#F8C300"/>
<path d="M8.37242 13.288L6.96088 14.3135L7.50004 12.6542L8.0392 14.3135L6.62766 13.288H8.37242Z" fill="#F8C300"/>
<path d="M14.1277 8.95941L15.5392 9.98496L15.0001 8.32559L14.4609 9.98496L15.8724 8.95941H14.1277Z" fill="#F8C300"/>
<path d="M15.9562 10.788L17.3678 11.8135L16.8286 10.1542L16.2895 11.8135L17.701 10.788H15.9562Z" fill="#F8C300"/>
<path d="M16.6277 13.288L18.0392 14.3135L17.5001 12.6542L16.9609 14.3135L18.3724 13.288H16.6277Z" fill="#F8C300"/>
</svg>
