<svg width="25" height="25" viewBox="0 0 25 25" fill="none" xmlns="http://www.w3.org/2000/svg">
    <g clip-path="url(#clip0_705_1864)">
    <g clip-path="url(#clip1_705_1864)">
    <path d="M0 0H25V25H0V0Z" fill="#006600"/>
    <path d="M0 0H25V17.8564H0V0Z" fill="white"/>
    <path d="M0 0H25V7.14355H0V0Z" fill="#CC0000"/>
    <path d="M11.5 12.1679C11.5487 12.0841 11.6235 12.0184 11.7129 11.9808C11.8023 11.9432 11.9015 11.9357 11.9955 11.9596C12.0895 11.9834 12.1732 12.0371 12.234 12.1127C12.2947 12.1884 12.3292 12.2817 12.3321 12.3786V14.1643H12.6679V12.3786C12.6708 12.2817 12.7053 12.1884 12.766 12.1127C12.8268 12.0371 12.9105 11.9834 13.0045 11.9596C13.0985 11.9357 13.1977 11.9432 13.2871 11.9808C13.3765 12.0184 13.4512 12.0841 13.5 12.1679C13.5525 12.0096 13.5667 11.841 13.5413 11.6762C13.516 11.5113 13.4519 11.3548 13.3542 11.2196C13.2566 11.0843 13.1283 10.9742 12.9797 10.8982C12.8312 10.8223 12.6668 10.7827 12.5 10.7827C12.3332 10.7827 12.1688 10.8223 12.0203 10.8982C11.8717 10.9742 11.7434 11.0843 11.6458 11.2196C11.5481 11.3548 11.484 11.5113 11.4587 11.6762C11.4333 11.841 11.4475 12.0096 11.5 12.1679Z" fill="#F8C300"/>
    <path d="M11.7393 11.7001C11.886 11.6703 12.0384 11.6873 12.1749 11.7489C12.3114 11.8104 12.4251 11.9132 12.5 12.0429C12.5749 11.9132 12.6886 11.8104 12.8251 11.7489C12.9616 11.6873 13.114 11.6703 13.2607 11.7001C13.2355 11.5162 13.1445 11.3478 13.0047 11.2258C12.8648 11.1039 12.6855 11.0367 12.5 11.0367C12.3144 11.0367 12.1352 11.1039 11.9953 11.2258C11.8555 11.3478 11.7645 11.5162 11.7393 11.7001Z" fill="white"/>
    <path d="M12.3321 13.4501C12.3091 13.7031 12.2154 13.9445 12.0619 14.1469C11.9083 14.3493 11.7011 14.5046 11.4637 14.595C11.2262 14.6854 10.9682 14.7074 10.7189 14.6584C10.4696 14.6094 10.2391 14.4915 10.0536 14.3179C9.97449 14.5174 9.85096 14.6962 9.69236 14.8407C9.53376 14.9853 9.34428 15.0917 9.13834 15.152C8.9324 15.2123 8.71542 15.2248 8.50393 15.1885C8.29243 15.1523 8.09199 15.0683 7.91785 14.9429C8.04999 16.2429 9.99999 15.9786 10.1429 14.7143C10.7571 15.7893 12.1071 15.4822 12.5 14.1643L12.3321 13.4501Z" fill="#F8C300"/>
    <path d="M12.6679 13.4501C12.6909 13.7031 12.7846 13.9445 12.9381 14.1469C13.0916 14.3493 13.2989 14.5046 13.5363 14.595C13.7737 14.6854 14.0318 14.7074 14.2811 14.6584C14.5304 14.6094 14.7609 14.4915 14.9464 14.3179C15.0255 14.5174 15.149 14.6962 15.3076 14.8407C15.4662 14.9853 15.6557 15.0917 15.8617 15.152C16.0676 15.2123 16.2846 15.2248 16.4961 15.1885C16.7076 15.1523 16.908 15.0683 17.0821 14.9429C16.95 16.2429 15 15.9786 14.8571 14.7143C14.2429 15.7893 12.8929 15.4822 12.5 14.1643L12.6679 13.4501Z" fill="#F8C300"/>
    <path d="M11.0286 15.7608C10.7571 16.3501 10.2143 16.4501 9.73928 15.9751C9.73928 15.9751 9.92856 15.8393 10.1321 15.8036C10.1197 15.7125 10.127 15.6197 10.1535 15.5316C10.18 15.4435 10.2251 15.3621 10.2857 15.2929C10.4384 15.3919 10.552 15.5409 10.6071 15.7143C10.8929 15.6786 11.0286 15.7608 11.0286 15.7608Z" fill="#F8C300"/>
    <path d="M13.164 15.6944C12.8 16.2314 12.2481 16.2414 11.857 15.6952C11.857 15.6952 12.0659 15.5922 12.2726 15.5903C12.2752 15.4983 12.2975 15.408 12.3381 15.3254C12.3786 15.2428 12.4364 15.1698 12.5075 15.1115C12.642 15.2341 12.7298 15.3996 12.7558 15.5798C13.0435 15.5912 13.164 15.6944 13.164 15.6944Z" fill="#F8C300"/>
    <path d="M15.2593 15.9728C14.8133 16.444 14.267 16.3647 13.9694 15.7624C13.9694 15.7624 14.1922 15.6946 14.3965 15.726C14.4139 15.6357 14.4506 15.5501 14.5039 15.4752C14.5573 15.4002 14.6261 15.3376 14.7057 15.2915C14.8186 15.4342 14.8785 15.6118 14.875 15.7937C15.1571 15.8515 15.2593 15.9728 15.2593 15.9728Z" fill="#F8C300"/>
    <path fill-rule="evenodd" clip-rule="evenodd" d="M15.8828 17.3453C13.6754 16.6883 11.3245 16.6883 9.11722 17.3453L8.95419 16.7977C11.2679 16.1089 13.7321 16.1089 16.0458 16.7977L15.8828 17.3453Z" fill="#F8C300"/>
    <path d="M13.3725 8.288L11.9609 9.31354L12.5001 7.65417L13.0392 9.31354L11.6277 8.288H13.3725Z" fill="#F8C300"/>
    <path d="M10.8725 8.95943L9.46091 9.98498L10.0001 8.32561L10.5392 9.98498L9.12769 8.95943H10.8725Z" fill="#F8C300"/>
    <path d="M9.04388 10.788L7.63234 11.8136L8.1715 10.1542L8.71066 11.8136L7.29911 10.788H9.04388Z" fill="#F8C300"/>
    <path d="M8.37245 13.288L6.96091 14.3136L7.50007 12.6542L8.03923 14.3136L6.62769 13.288H8.37245Z" fill="#F8C300"/>
    <path d="M14.1277 8.95943L15.5392 9.98497L15.0001 8.3256L14.4609 9.98497L15.8725 8.95943H14.1277Z" fill="#F8C300"/>
    <path d="M15.9563 10.788L17.3678 11.8136L16.8287 10.1542L16.2895 11.8136L17.701 10.788H15.9563Z" fill="#F8C300"/>
    <path d="M16.6277 13.288L18.0392 14.3136L17.5001 12.6542L16.9609 14.3136L18.3725 13.288H16.6277Z" fill="#F8C300"/>
    </g>
    </g>
    <rect x="1" y="1" width="23" height="23" rx="4" stroke="white" stroke-width="2"/>
    <defs>
    <clipPath id="clip0_705_1864">
    <rect width="25" height="25" rx="5" fill="white"/>
    </clipPath>
    <clipPath id="clip1_705_1864">
    <rect width="25" height="25" fill="white"/>
    </clipPath>
    </defs>
    </svg>
    